<svg xmlns="http://www.w3.org/2000/svg" width="1051.164px" height="1849.132px" viewBox="0 0 1051.164 1849.132"><path fill="#C8963E" fill-rule="nonzero" d="M687.33,1090.477c0.719-2.988-0.277-4.387-0.479-7.292  c-0.325-4.71,1.117-5.012-1.35-9.833c-0.209-0.411-1.291-0.931-1.701-1.69l-2.602-3.724c-0.607-0.131-1.264-0.482-1.719-0.902  c-0.824-2.102-1.809-3.969-2.75-5.998c-0.471-1.016,0.043-2.41-0.346-3.508c-0.107-0.303-0.955-2.775-1.207-3.163  c-0.873-1.347-1.732-1.61-1.754-3.342c-0.77-0.727-1.555-1.533-2.133-2.427c-0.135-0.853-0.492-3.578,0.113-4.281  c-0.896-1.258-0.26-2.641-0.391-3.987c-0.193-2.018-4.418-5.198-4.778-8.36c-1.517-1.053-2.97-4.945-2.989-6.759  c-0.004-0.304,0.943-3.137,1.039-3.673c0.352-1.937,0.023-3.488,0.023-5.35c0-0.814,1.105-2.7,1.343-3.697  c0.503-2.135,0.55-4.506,0.759-6.688c0.092-0.95-0.166-3.675,0.264-4.466c0.764-1.402,2.443-2.504,4.059-2.464  c2.395-1.513,2.152-6.899,0.169-8.513l-0.743-0.155l-1.004,0.345c-4.814-0.46-3.061-4.818-4.643-7.238  c-1.191-1.822-5.121-2.459-6.223-4.274c-0.676-1.596-2.281-2.385-2.779-3.559c-0.348-0.816-0.48-1.821-0.807-2.677  c-3.92-1.492-5.801-4.653-8.088-5.457c-1.451-0.51-3.594-0.19-5.273-0.72c-2.272-2.181-1.572-1.396-2.818-4.677  c0.062-1.087,0.615-1.741,1.379-2.494c0.121-0.276-0.791-1.767-0.583-2.812l1.522-1.483c0.025-0.137,0.023-0.35,0.092-0.473  c1.302-2.355,0.656-5.104,2.115-7.205c0.059-0.083-0.084-0.211-0.154-0.271c-0.805,0.028-1.873-0.488-2.627-0.706  c-0.523-0.666-0.443-1.206-0.07-1.937c-0.598-0.716-1.166-1.298-1.971-1.812c0.271-0.631,0.861-1.336,1.416-1.736  c0.303-1.455-2.152-8.795-3.082-10.003c0.576-0.313,1.557-1.062,1.846-1.687c-0.234-0.607-2.322-1.615-2.322-1.615l0.85-0.879  l4.625-2.223c-0.602-0.077-1.203-0.215-1.801-0.321c-3.143-2.798-4.02-5.744-6.047-9.381c-0.033,0.019-2.432-0.401-2.828-0.379  l-0.379-0.345c-0.102-1.972-2.227-3.146-2.324-4.527c0.176-0.37,0.281-0.908,0.164-1.312c-0.432-0.778-1.396-1.137-1.729-1.879  c-1.365-3.047-1.354-6.162-3.074-9.057c0.23-0.413,0.082-1.261-0.109-1.656l-0.871-0.774c-0.273-2.066-1.666-4.662-2.311-6.653  c0.207-0.354,0.401-0.748,0.805-0.916c0.164-0.484-0.604-2.513-0.777-3.052c-0.395-1.21,0.326-2.703,0.602-3.893  c1.201-5.198,1.053-5.923,0.475-11.098c-0.188-1.671,0.51-3.689,0.553-5.44c0.033-1.284-1.867-2.535-2.211-4.478  c-0.357-0.121-0.713-0.625-0.814-0.97c0.314-1.365,3.203-3.546,3.687-3.873c1.823,2.169,6.261,0.417,7.378,1.913  c1.324,0.45,3.867-0.037,5.141-0.345l0.426-0.439c1.779-0.247,4.438-0.247,6.156,0.409c2.82-0.552,4.576-2.535,6.502-4.373  c0.766-0.729,3.266-0.132,4.6-0.939c-0.709-1.204-3.008-0.71-3.59-2.288c-2.496-0.805-2.694-1.393-4.352-3.277  c-1.134-1.29,2.688-4.269,3.602-5.319c4.455-1.09,9.295-4.312,12.916-6.988c0.887-0.655,3.508-0.802,3.931-1.994  c0.376-1.059-0.118-2.171,0.233-3.298c0.09-0.103,0.25-0.232,0.312-0.354c1.934-3.853,4.918-7.506,5.049-12.017  c0.398-0.227,0.707-2.482,0.98-3.059c0.588-1.244,6.309-6.575,6.959-7.188c2.404-2.267,6.818-3.004,7.834-4.548  c0,0-0.609-2.74-1.325-4.228c0.411-1.17,0.304-3.151,0.669-3.988c0.414-0.946,1.699-1.1,2.244-2.189  c0.85-1.696-0.387-1.741,1.082-3.724c0.27-0.363,1.076-0.999,1.005-1.517c-0.204-1.479-0.489-2.107-0.312-3.582  c0.363-0.539,1.506-1.809,2.236-1.855l0.02-1.007c1.379-0.042,3.232-0.016,4.4-0.811l0.17-0.433c3.506-2.083,4.572-5.276,7.57-7.674  c4.078-3.263,9.043-4.85,13.875-6.488c1.514-0.513,4.24,0.22,5.881,0.416c0.467,0.055,7.157-4.51,11.918-3.001  c1.344-1.14,5.346,0.876,7.984-0.402c0.492-0.436,0.926-1.196,1.135-1.811l1.533-1.43c0.348-0.209,1.688-0.947,2.102-0.852  l0.389,1.393c0.523,0.703,2.056,1.869,3.008,1.51c0.906-0.566,1.844-1.726,2.432-2.592c1.307,0.272,5.096-3.085,5.096-3.085  c0.941,0.005,2.533-0.528,3.148-1.291c4.461-0.248,3.584,0.092,7.35,2.778c0.953,0.257,3.856-1.238,4.59-1.96  c0.297-0.84-0.838-2.02-0.139-3.018l0.385-0.229l4.441,0.648l0.709,0.575c0.043,0.913-0.285,5.247,0.072,5.704l0.846,0.602  c2.244-0.326,4.661,0.854,5.943,0.568c1.326,1.518,2.023,1.358,3.969,0.909c0.775,0.397,1.525,1.101,2.145,1.696l1.619,0.054  c0.342-0.118,1.453-1.724,1.883-2.129c0.914-0.276,3.688,2.726,4.348,3.339c1.203,1.12,3.793,0.369,5.098,1.73l1.057-0.129  c0.791-0.591,1.002-1.546,1.072-2.48c2.211,0.688,5.049,0.091,7.229-0.625c0.673,0.871,1.287,1.918,2.244,2.508  c0.861,0.013,7.597-1.516,8.156-1.785c0.305-0.412,1.58-2.418,2.076-2.413l0.217-0.338c1.25-0.295,2.854-0.027,3.992,0.551  l0.277,1.507l3.148,0.199c0,0,2.09-4.109,2.809-5.501l0.801-0.459c0.514,0.171,1.121,2.359,1.121,2.359  c0.867,0.941,1.512,1.365,2.693,1.622c0.963-0.607,2.051-2.108,2.631-3.048c0.127-0.049,0.393-0.208,0.525-0.203  c6.934,0.3,4.266,2.287,8.443,3.616c0.879,0.049,1.609-0.463,2.303-0.483c1.76-0.052,3.426,0.602,5.117-0.331l0.85,0.801  c1.666,0.02,6.394,0.948,7.5,2.514l0.502,0.132c1.351-0.213,1.205-4.202,5.135-3.153c2.754,3.307,4.834,2.8,7.979,1.084  c1.156-3.523,4.696-4.821,7.219-7.431l0.807-0.152c1.041,1.413,0.695,2.756,2.5,3.572l1.087,0.013  c1.104-0.518,2.462-3.044,3.562-4.109l0.92-0.152c1.076,1.081,0.633,2.622,1.691,3.697c0,0,3.475-1.104,4.42-2.774  c0.965-0.051,2.393-0.826,2.959-1.609c1.992-0.958,4.52,3.411,6.066,3.835c1.033-0.183,2.225-1.218,3.264-1.639l0.533,0.047  c0.953,0.989,7.271,4.562,8.746,4.359c0.871-0.12,1.887-0.543,2.746-0.791c0.461,0.441,1.615,1.441,2.271,1.578  c0.705,1.323,0.225,7.36,0.225,8.583c0.133,0.108,0.191,0.36,0.125,0.517c0.164,0.038,2.52,3.699,2.727,4.248  c0.463,1.223-0.117,2.844,0.773,3.934c3.012,3.683,9.5,3.817,12.754,0.368c0.75-0.796,1.838-1.67,2.332-2.66l-0.932-1.024  c0.596-1.134,0.992-3.18,1.732-4.133c0.553-0.713,1.223-4.518,1.223-4.518l0.301-0.537c0.32-0.331,2.549-0.983,2.549-0.983  c0.465-0.053,1.277,0.168,1.594,0.541v0.169c0.598,0.322,1.26,0.554,1.902,0.76l0.81-0.206c0.356-1,1.544-2.202,2.356-2.828  c1.264,0.139,2.584,0.927,3.854,0.625c0.729-0.541,1.326-1.694,2.148-1.953c0.438-1.098,1.096-2.716,2.33-3.136l0.723,0.131  c0.598,1.085,1.863,2.347,3.227,2.062c3.08-5.667,7.926-4.087,9.463-5.62l0.402-0.957c-0.197-0.348-0.436-0.867-0.375-1.284  c1.447-0.62,10.889-12.771,11.18-13.97c0.285-1.181,0.041-2.215,0.658-3.393c-0.131-0.885-0.658-1.945-1.201-2.643l0.033-4.562  c-1.908-1.204-0.207-4.645-0.938-6.59c0.771-1.167,0.119-2.417,0.879-3.531c0,0-0.475-2.163-1.086-2.619  c-0.338-0.731-0.533-1.82-0.42-2.623l0.66-0.733c-0.256-1.397-0.957-2.108-1.045-3.514c0.885-1.984,2.402-3.056,4.619-3.46  l0.27-0.703c-0.084-0.443-0.369-1.422-0.299-1.842l-1.289-0.517l-0.453-0.639l0.02-0.811c1.172-0.915,3.406-0.717,4.866-1.565  c0.614-1.682-1.276-4.807-3.067-4.775l-0.426-0.723c0.287-0.535,1.068-2.217,1.506-2.561c0.863-0.13,1.918,0.038,2.766,0.196  c1.516-1.059,2.406-2.398,4.146-3.399l0.107-0.311l-0.172-0.781c-1.289-1.264-2.848-1.308-4.381-2.105  c-0.053-0.366-1.148-2.528-1.371-3.004c-1.152-0.538-1.766-0.763-2.283-1.96c0.123-0.535,0.361-1.862,0.166-2.406  c-1.379-1.106-1.84-0.322-3.355-0.578c-0.668-0.624-1.203-1.714-1.51-2.555c-1.167-1.192-3.262-0.675-4.541-1.683  c-2.035-2.826,0.094-3.228,0.746-5.768l-0.492-1.474c0.161-2.792,8.162-11.297,10.305-12.527c0.949,0.148,2.445,0.575,3.182-0.287  l0.381-0.73c0.041-0.402-1.48-5.935-1.689-6.438l-0.449-0.135c-1.301,0.928-7.578,0.848-9.541-0.088  c-0.828-0.395-1.564-0.899-2.426-1.23c-0.811-0.312-0.246-2.749,0.149-3.19l2.427-2.71c5.199,0.125,10.135-0.961,12.064-6.171  c0.631-1.702,0.002-3.276,1.009-5.096c-1.022-4.279-1.378-4.333,1.052-8.644c0.047-0.083,0.678-0.429,0.791-0.5  c1.131-1.271,0.793-5.045,1.338-7.016c2.1-7.612-1.597-7.151-3.703-13.422c-1.039-0.37-5.176-2.426-5.775-3.207  c-0.605-0.188-1.338-0.161-1.959-0.088c-3.109-1.954-4.055-3.789-7.42-0.28c-2.982,1.188-4.047-1.615-5.916-2.274l-0.049-1.869  l-0.148-0.558l-0.453-0.416l-0.217-0.041c-2.793-0.553-2.547-2.641-3.256-4.947c-0.119-0.386-0.689-0.919-0.873-1.443  c-0.898-2.557-1.832-5.075-3.207-7.42c-0.217-0.371-1.102-1.676-1.082-2.062c3.207-5.194,2.541-8.396,8.73-7.836  c0.131,0.012,0.672-0.187,0.84-0.233l0.27-0.953c-0.918-2.925-4.053-2.799-6.635-2.899c-0.865-0.034-1.762-0.913-2.572-1.146  c-1.311-0.378-2.701,0.051-3.949-0.142c-1.138-0.176-2.137-0.749-3.16-1.159c-1.762-0.708-5.857-0.844-7.818-1.154l-1.646-0.262  c-3.168-1.005-6.5-2.767-9.615-4.065c-1.447-0.603-3.113-0.751-4.664-0.841c-2.955-2.888-3.979-3.072-4.699-3.64  c-0.816-0.642-1.248-1.774-3.659-7.867c-0.202-0.509-0.517-1.508-0.378-2.068c1.607-6.415-1.645-6.557-5.84-10.824  c-0.672-0.684-0.924-2.01-1.693-2.781c-1.744-1.749-4.502-2.393-6.473-4.129c-0.83-1.862-1.506-3.467-2.713-5.086  c-1.285-1.723-0.002-3.941-2.65-7.201c-4.057-4.99-9.805-2.248-13.445-14.041c0.592-3.05,0.863-5.773,1.314-8.675  c0.346-2.219,2.148-4.68,2.861-6.965l0.023-0.405c0.135-2.66-0.469-6.057-1.396-8.583c-0.385-1.046-1.215-2.275-1.434-3.342  c-0.572-2.771,1.918-6.467,1.557-7.438c-0.338-0.914-1.062-1.76-1.387-2.676c-0.686-1.928-1.281-5.521-1.484-7.532  c-0.217-2.165-0.102-4.368-0.334-6.586c-0.028-0.283-0.326-2.723-0.295-2.842c0.65-2.46,2.058-3.039,3.311-5.021  c0.363-0.574,4.527-10.505,4.76-11.456c0.6-2.435,0.754-4.122,0.965-6.559c0.158-1.825,1.197-4.055,1.186-5.785  c-0.018-2.473-0.68-7.733-1.031-10.232c-0.398-2.825,0.084-6.531-1.729-9.006c-1.334-1.821-3.443-3.196-4.613-4.974  c-2.234-3.392-3.361-6.76-6.314-9.601c-1.344-1.292-8.324-4.615-10.24-5.809c-1.312-0.818-3.248-1.172-4.432-2.099  c-0.902-0.706-1.388-1.963-2.527-2.45c-3.391-1.451-8.293-3.253-10.793-6.096c-1.191-1.353-6.074-7.692-7.09-8.06  c-0.75-2.377-1.898-4.564-3.088-6.738c-5.59-10.21-8.859-4.244-13.777-12.412c-1.348-2.238-1.771-5.083-2.867-7.408  c-1.551-3.294-2.75-5.145-5.12-7.779c-1.415-1.571-3.565-3.438-4.606-5.288c-1.406-2.495-4.34-4.588-5.984-7.019  c-0.143-0.209-0.668-2.768-0.861-3.194c-1.757-3.882-3.264-7.992-5.754-11.412c-1.566-2.153-2.922-4.452-4.357-6.697  c-8.271-12.919-11.957-0.059-17.434,0.445c-2.715-0.479-2.07-5.383-7.758-6.735l-0.201-0.047c-2.33-0.085-9.982,0.515-11.592-0.047  c-0.771-0.27-3.211-2.718-3.842-3.308c-0.881-0.824-2.217-1.765-3.271-2.281c-4.535-2.227-5.553-1.437-8.031-2.474  c-2.242-0.938-4.492-2.104-6.709-3.136c-2.015-0.938-4.08,1.133-6.058,1.128c-1.386-0.689-4.55-2.866-5.923-2.859  c-0.075,0.062-3.496,0.574-3.73,0.622l-0.168,0.142c-1.959,1.685-5.494,1.061-7.865,1.067c-1.445,0.004-7.104,7.328-8.441,8.33  c-0.119,0.24-0.139,0.576,0.008,0.804c0.434,0.678,1.146,2.08,1.865,2.487c1.957,1.106,6.582,1.464,3.328,5.038  c-1.059,0.541-12.441,4.236-12.805,4.197c-0.979,0.581-2.017,1.668-2.576,2.656c-0.295,2.751,0.189,5.155-0.209,7.863  c-0.924,1.358-2.73,2.695-4.227,3.329l-0.051,0.297c-0.713-0.224-3.326,1.318-3.717,1.511c-0.196,0.285-1.404,6.024-1.4,6.14  c0.176,4.943,2.229,4.023-1.087,9.364c-1.142,1.833-3.255,3.892-5.505,3.862c-4.293-3.385-4.699-3.112-9.582-3.278  c-1.379,0.91-3.094,1.373-4.576,2.112c-2.486,1.238-5.158,1.884-7.416,3.474c-2.227,1.569-4.15,2.323-6.561,3.288  c-3.041,7.66-6.809,4.128-8.875,6.667c-0.545,0.023-1.444,0.166-1.91,0.486l-1.404,2.538l0.062,0.865  c0.791,0.695,1.451,1.513,2.152,2.298l0.082,0.696c-0.834,3.558-6.059,0.343-7.404-0.561c-1.758-1.18-3.834-1.313-5.348-2.717  c0.023-1.806,1.553-3.238,2.338-4.758c0.543-1.049,0.403-4.446,0.521-5.667l0.021-0.196c-0.283-0.854-0.357-1.644-0.578-2.467  c-0.799-2.972-7.414-1.267-8.9-1.571c-1.354-0.278-2.436-0.906-3.883-0.666c-2.258,0.375-1.756,1.07-4.016,0.027  c-3.207-1.48-5.48-2.464-8.441-4.677c-1.645-1.231-3.287-2.939-4.953-4.062c-3.916-2.638-6.652,0.272-11.838-5.221  c-0.58-0.614-0.598-1.461-1.045-2.058c-1.549-2.065-5.266-4.199-6.553-6.231c-0.771-1.218-1.676-6.276-2.828-6.742  c-3.924-1.583-3.545,0.127-5.463-0.287c-1.412-0.306-2.445-0.917-4.098-0.902c-6.865,3.557-3.428,3.284-6.713,7.931l-0.055,0.683  c-0.256,0.008-1.088,0.092-1.237,0.223c-1.196,1.038-1.671,2.081-2.534,3.261c-0.934,1.28-3.087,2.362-4.428,3.298  c-0.594,3.213-4.629,3.3-4.993,6.965c-0.854,0.646-1.901,0.613-2.724,1.098l-0.275-0.078c-2.682-0.743-4.648-2.186-7.156-3.241  c-1.697-0.715-3.344-0.311-4.91-1.771c-2.119-0.195-3.582,6.817-3.865,8.344c-0.117,0.631-0.824,1.285-1.158,1.801  c-0.682,1.047-0.92,3.211-1.326,4.471c-0.344,1.065,1.023,2.521,0.396,3.697l-2.041,1.805l-1.352-0.669  c-1.447-0.354-1.867,0.591-3.133,0.933c-1.344,0.363-6.567,1.021-7.191,1.591c-1.001,1.734-0.13,3.862-2.76,4.856l-0.508-0.112  c-0.314-0.743-0.781-1.441-1.207-2.122l-0.289,0.037l-0.659,0.595c-0.107,2.23-1.235,4.194-2.589,5.924l0.844,0.771  c1.07,0.012,3.09,1.707,2.398,2.737c-0.93,0.037-2.387-0.826-3.013-0.547c-0.798,0.495-1.185,1.864-1.938,2.031l-1.217-0.037  c-0.88,0.438-1.829,1.353-2.478,2.068c-0.038,0.326-0.052,0.801,0.134,1.095c-0.204,0.917-1.062,1.396-1.246,2.504l-0.314,0.102  l-0.44-0.378l-0.128-0.369l-0.131-2.855l-0.188-0.341l-0.531-0.155l-0.584,0.541c-0.299-0.004-0.663,0.08-0.916,0.247l-1.141,1.082  c-0.129,0.46-0.553,1.173-0.98,1.423c-1.018,0.311-4.115-0.551-4.115-0.551l-1.029,0.354l-0.594,0.764l0.441,0.325  c0.87-0.094,2.697,0.003,3.314,0.804l0.072,0.365c-0.295,0.502-2,1-2.746,1.73c-0.093,0.816-3.145,1.468-3.457,1.899  c-0.31,0.426-1.204,0.287-1.69,0.619c-0.712,1.782-2.71,3.485-4.796,2.977c-0.36,0.353-1.107,0.657-1.608,0.676l-0.243,0.578  l-0.076,1.426c-1.992,0.241-1.543,2.668-3.851,2.7c-0.983,0.735-1.833,1.894-1.884,3.156c-0.216,0.301-0.994,0.973-0.994,0.973  c-0.624,1.929-2.031,3.303-2.543,5.177c-1.87,0.379-4.348,0.177-5.721,1.247c-0.329,0.85,0.098,2.395,0.351,3.224l-0.095,0.304  c-0.621,0.004-1.305,0.154-1.854,0.446l-0.324,0.521l0.335,0.99l-0.403,1.189l-0.321,0.267c-0.852,0.108-1.379-0.244-1.834-0.949  l-1.105,0.077c0,0-2.436-0.548-2.717-0.726c0,0-1.865-2.188-1.881-2.322c0,0-1.195-0.594-1.883-0.334l-0.758-0.162  c-0.651-0.871-2.027-2.94-2.027-2.94l-1.063-0.341c-0.192-0.4-0.173-0.986-0.042-1.399l-2.803-1.733l-2.457-0.102  c-1.982-1.117-3.286-2.312-5.816-1.879l0.174-0.2c2.189-2.49,5.133-4.399,4.892-7.958c-0.047-0.689-0.535-2.499-0.246-3.139  c0.536-1.188,1.458-2.161,1.946-3.464c-0.027-0.991-0.66-1.231-0.881-1.872c-0.186-0.545-0.139-1.258-0.285-1.825  c-0.378-1.463-3.097-3.198-2.939-4.836c0.337-0.642,2.521-0.945,3.461-2.163l-0.003-0.784c-0.231-0.667-1.243-1.473-1.848-1.757  l-0.038-0.561l0.655-1.098c0.852-0.479,3.232-1.386,3.603-2.021c0.675-2.755-1.133-4.388-0.84-6.928  c0.75-1.769,5.857-3.78,7.553-4.14c1.297-1.457,2.896-3.031,3.969-4.633c1.429-2.133-1.086-6.471,5.309-8.962  c1.344-0.523,2.77-3.036,2.373-4.562c-2.274-1.002-2.311-4.56-2.401-6.641c-0.032-0.714,0.655-1.29,0.796-1.99  c0.154-0.769-0.158-1.803,0.057-2.653c0.478-1.894,2.082-3.243,2.209-5.245c-0.19-1.16-2.088-1.086-2.81-0.98l-0.19-0.257  c0.494-1.773-0.516-3.651-2.018-4.562l-0.017-0.477l1.243-1.612c0.146-0.614-0.545-1.752-0.659-2.48  c1.217-3.155,3.133-3.137,3.59-3.92c0.068-0.256,0.165-0.564,0.138-0.834l-0.816-1.142c-0.979-0.537-2.38-0.9-3.495-0.916  c-1.745-1.306-4.68-3.627-6.935-3.754c-0.565-0.526-1.047-1.959-0.998-2.687c-0.212-0.554-1.064-1.133-1.611-1.277  c-0.17-0.832-1.152-1.105-1.365-1.886c0.254-2.986,2.418-4.792,4.613-6.603c-0.617-1.508,0.839-4.193,1.588-5.377  c1.639,0.229,2.277,0.393,3.822-0.361l1.525-2.359c0.952-0.451,3.295-0.963,3.807-1.564c-0.057-0.518,0.047-1.144,0.278-1.612  c-0.425-1.012-0.437-3.228-0.407-4.292c0.806-0.719,3.889-0.739,6.681-3.322c1.146-1.061,1.995-5.371,3.608-6.012  c0.171-1.392-3.121-2.981-4.229-3.095l-0.168-0.199c0,0-1.066-1.849-1.069-2.213l1.474-1.467c-0.057-0.647,0.016-1.352,0.174-1.98  c2.352-1.996,0.727-3.866,1.762-6.069c-0.389-0.712-0.791-1.667-0.863-2.487c1.497-2.532,0.812-4.872,0.184-7.546l0.502-0.514  c0.838,0.131,2.389-1.757,2.838-2.264l0.154-1.281c3.929-3.438,1.199-3.086,2.258-6.363c1.271-0.496,1.141-1.973,2.197-2.646  l1.628-0.003c0.776-0.163,2.555-4.72,2.745-5.539c0.035-0.871-2.867-3.443-3.441-3.906l-0.459,0.041  c-2.178-1.361-3.17-3.763-5.893-4.153c-3.176-3.708-0.379-3.736-2.631-7.911c0.795-1.877,1.121-5.644,0.755-7.61  c-0.173-0.929-1.176-2.186-1.44-3.23c-0.154-0.605-0.039-1.379-0.223-1.967c-0.846-2.695-1.939-2.753,0.01-5.731  c0.207-3.004-4.582-0.868-4.561-4.082l0.022-3.437l0.739-0.707c-0.467-2.098,1.033-3.05,0.947-4.67l-1.1-2.382l1.156-2.062  l1.056,0.003l0.905-0.534c1.158,0.105,1.576,0.207,1.98,0.17c0.39-0.035,0.768-0.199,1.783-0.613  c0.592-0.515,0.529-2.488,0.416-3.149c0.646-0.553,1.309-1.238,1.726-1.987c0.072-0.549-0.538-1.831-0.786-2.291  c0.213-1.371,0.348-1.828,0.932-3.132c0.043-0.449-0.51-0.713-0.713-1.027c-2.414-3.756-2.234-1.176-4.018-3.281l-2.669,0.088  l-0.649-0.385l-0.604,0.152c-0.52,0.247-0.893,1.603-0.955,2.095c-0.734,0.722-7.824,1.354-9.613,1.393l-0.855-0.95  c-0.715-0.291-1.561-0.486-2.336-0.486c-0.242-1.037-0.689-1.476-1.453-2.085l-0.92,0.03c-0.746-0.472-5.871-5.162-6.938-2.578  c-1.46,0.121-3.84-0.532-4.997,0.385c-0.409-0.193-9.061-1.156-9.223-1.129l-0.551,0.321c0.111,2.479-6.374,9.324-7.841,11.357  c-0.524,0.669-5.854,5.414-6.572,5.495c-0.591-0.976-0.633-2.038-1.695-2.761c-2.16-1.47-11.672-4.54-12.359-5.339  c-0.328,0.088-0.841,0.065-1.113-0.169c-0.911,0.109-1.962,0.533-2.749,0.99c-0.443,1.213-1.319,2.071-1.808,3.14  c-0.464,1.015-1.088,3.784-3.107,2.686c-0.949-0.517-2.955-1.552-3.602-2.332c-4.905-0.404-3.713-2.449-6.447-2.882l-0.606-0.936  c-0.175-0.875,0.767-4.433,0.121-5.451c-1.291-2.037-3.672-2.979-4.907-4.964c0.299-4.025-1.409-3.238-1.586-5.045  c0.125-1.258,1.021-1.924,1.402-3.068l-0.447-1.463c-1.326-1.165-2.537-2.195-3.514-3.643c-0.777-4.211,2.973-4.664,4.102-7.529  c0.649-1.651,0.336-3.604,1.542-5.076c1.294-1.578,4.8-1.451,5.501-3.944l0.293-0.186c0.262-0.697,1.707-2.97,1.679-3.619  c-0.052-1.188-0.563-2.312-0.278-3.532c0.242-1.033,1.381-3.19,1.375-4.048c3.003-7.4,5.15-15.449,5.82-23.392l-2.943-0.037  c-1.738,0.56-1.723,2.869-2.809,3.535l-0.629-0.017c-2.396-1.789-3.891-4.089-5.998-6.096c-0.481-0.238-1.346-0.246-1.854-0.129  l-0.607-0.882c0.298-0.423-0.041-2.741-0.252-3.278c-1.076-0.639-2.996-1.916-3.756-2.801c-0.139-0.161-0.439-0.839-0.536-1.055  c-0.929-2.064-1.989-3.621-3.116-5.589c-1.008-1.759,0.006-5.141-2.746-5.519c-0.289-0.802-0.445-1.679-0.559-2.521  c-1.965-2.536-9.576-4.844-11.656-2.443c-0.777,0.897-0.762,1.691-1.27,2.66c-0.482,0.92-2.293,0.944-2.783,2.562  c0.047,1.384,0.455,2.868-0.426,4.089c-1.035,1.294-4.629,0.507-6.111,2.294c-0.529,1.004,1.473,4.537,1.108,5.596l-0.591,0.906  c-0.828,0.651-3.29,0.201-4.219,0.017c-3.734-0.741-5.723-1.272-4.957-5.448c0.137-0.748,0.589-1.388,0.561-2.189  c-0.084-2.366-1.23-4.062-1.532-6.4l-0.983-0.24c0,0,0.059-1.88-0.09-2.125l-0.869-0.862c-0.26-0.144-1.112-1.619-1.112-1.619  l-2.257,0.503l-1.656,0.744c-0.403-0.15-0.818-0.301-1.198-0.503l-1.086-1.396c-0.256-0.461-0.489-1.093-0.45-1.632  c-0.738,0.094-1.449-0.412-2.082-0.72c0.237-1.052,0.116-1.128-0.438-2.023l-0.437-0.011c-0.315-0.123-0.327-0.545-0.327-0.828  l-1.69-2.358c-1.179,0.082-0.458,0.455-1.427,1.155c-1.59,1.149-6.484,1.468-8.599,1.406c-1.097,1.022-4.097,4.427-4.595,5.688  c-0.287,0.728-0.004,1.666-0.17,2.345c-0.175,0.716-2.657,3.938-3.209,4.346c-5.16,3.817-7.972-3.521-11.986,2.034  c-1.526,0.218-3.021,1.254-4.539,0.967c-1.44-0.273-3.344-2.297-4.441-2.19c-0.248,0.166-1.909,0.911-2.264,0.811  c-1.914-0.537-3.964-1.273-5.797-1.997c-0.74-0.292-1.55-1.058-2.301-1.25c-1.252-0.321-2.198-0.306-3.461-0.909  c-1.217-0.581-3.223-2.095-4.383-2.853c-0.384-0.25-2.021-1.05-2.389-0.561c-0.202,0.642-0.939,2.623-0.649,3.031  c0.741,0.986,2.663,1.973,3.778,2.369c2.746,3.777,1.828,2.965,2.52,7.205c0.236,1.448,0.695,2.605,0.802,4.123  c0.034,0.485-0.071,0.962-0.228,1.426c0.22,0.684,3.938,3.587,4.633,3.866c1.443,1.691-2.077,5.81-2.264,7.728  c-0.497-0.159-1.779-0.419-2.297-0.186c-1.191,1.11-2.453,2.854-3.023,4.383c-2.512,0.004-3.914,2.078-6.307,2.139  c-0.402,1.082-6.904,0.986-8.037,0.963c-2.242-0.045-3.336,2.928-6.166,2.288c-1.91-0.432-5.169-4.345-6.092-4.251  c-0.281-0.595-1.268-1.333-1.805-1.656c-1.076,0.202-1.98-0.727-3.094-0.476l-1.158-1.058c-1.102,0.001-2.301,0.298-3.365,0.247  c-2.568-0.125-4.077-0.5-6.494,1.338l-0.246,1.027c-2.083,1.313-6.143,0.862-7.021,2.085l0.075,2.156  c-2.651,3.305-3.529,4.962-1.834,8.996l-1.463-0.023c-1.555,2.872-2.055,3.359,0.318,6.126l-0.201,1.48l-2.102,0.409  c-0.262,1.402,0.57,3.046,0.492,4.565l0.84,1.105c0.113,1.301,0.174,3.727-0.352,4.971c-0.514,1.214-3.069,4.745-3.232,5.758  c-0.17,1.063,0.488,1.621-0.475,2.565c-4.723-1.146-6.643-0.255-9.328,3.785l-0.771-0.067c-1.071-0.62-1.121-2.28-2.01-2.998  c-1.941-1.565-5.043-3.052-6.396-5.109c-0.747-0.014-0.938-0.138-1.552,0.169c-3.111,4.969-4.555,3.919-6.528,6.356  c-2.289,0.892-4.614-0.041-6.788-0.416c-1.088-0.187-4.736,1.2-6.188,1.527l-1.021,1.159c-0.739,0.21-1.557,0.368-2.329,0.355  c-0.934,0.617-1.074,1.997-1.279,3.028c-1.117,0.717-3.614-0.326-5.072,0.063c-1.1,0.555-2.235,3.403-2.362,4.552l-2.974-2.419  c-1.092-0.89-1.91-1.911-3.08-2.785c0,0-1.885,0.63-2.14,1.062c-1.327,0.302-2.288,0.968-3.405,1.683  c-1.322-0.159-5.059-0.431-6.16-0.031l-1.678-0.973c-1.524-0.024-2.337,0.194-3.484,1.24c-1.543-0.27-5.326-1.044-6.67-0.479  c-0.662,0.278-1.274,1.111-1.938,1.372c-1.598,0.626-3.789-0.438-5.253,0.686c-1.983-0.034-2.907-2.519-1.834-4.048  c-0.113-0.481-1.272-1.502-1.641-1.808c-3.577-0.015-4.27-3.177-6.436-5.282c-1.166,0.1-3.032-0.662-3.765-1.584l-1.229-0.098  l-2.106,1.095l-0.659-0.064c-0.325-0.172-1.162-1.132-1.162-1.132c-0.354-0.92-1.215-2.234-2.057-2.791l-2.186,0.449  c-0.668-0.311-1.016-0.511-1.716-0.551c-0.278,1.345-1.442,7.845-1.228,8.985l-0.758,0.997c-0.108,0.342,0.898,7.815,1.733,8.435  c-1.897,3.875-4.063,1.694-6.5,2.136c-1.942,0.777-0.911,3.318-1.919,4.646c-0.566,0.601-1.896,0.285-2.608,0.473  c-1.349,0.357-2.765,0.993-4.085,1.466c-2.229,0.801-4.164-0.01-6.086,1.443c-0.211,0.769-0.031,1.514-0.168,2.237  c-0.67,3.561-0.074,4.188,2.938,6.039l0.104,0.814l-1.263,0.375c-0.126,0.532-1.214,2.215-1.827,2.163  c-1.353,2.041-3.433,3.355-4.722,5.346c-0.479,0.738-1.251,2.916-2.066,3.362c-0.646,0.354-1.545,0.602-2.241,0.872l0.104,0.754  l1.596,0.828l0.587,1.041l-0.371,2.568c-0.028,0.189,3.687,5.691,4.19,6.471c0.222,0.345,0.212,0.652,0.59,0.956  c-0.512,0.596-1.168,1.099-1.788,1.575c-0.876,0.103-2.579,0.207-3.429-0.145c-0.424,0.049-1.192,1.166-1.388,1.494l0.305,0.926  c1.434,0.7,5.642,5.014,5.902,6.38c-0.456,1.244,0.038,10.909-0.776,13.689c-0.57,0.719-1.59,0.937-2.465,0.838  c-0.906,0.595-1.211,1.554-2.307,2.075c-0.818,0.389-1.812,0.382-2.635,0.838l-0.226,2.349c-0.22,0.394-0.827,1.097-1.296,1.216  l-0.941-0.067c-0.459,0.17-0.929,0.579-1.178,0.997c0.235,1.919-0.553,4.358-0.273,6.704c-0.378,0.847-2.465,1.468-3.319,1.338  l-0.267,0.835c-1.051,1.155-2.934,0.641-4.094,1.554c-0.122,0.737-0.096,1.603,0.121,2.321c0.363,0.204,0.833,0.341,1.25,0.348  c2.322,1.579,3.188,4.745,6.562,5.289c0.729,1.514,0.447,3.273,1.117,4.596l-0.639,1.477l0.068,1.453  c3.167,4.641-0.251,10.674,3.6,15.436c-1.115,1.804,0.706,13.105-0.916,13.967l-0.541,0.22c-0.815-0.063-3.533-0.868-4.006-0.656  c-2.809,1.259-3.244,1.804-6.575,0.271c-1.697,0.436-3.146,1.933-4.544,2.027c-0.686,0.047-1.184-0.283-1.908,0.122  c-0.281,0.436-0.077,1.6,0.064,2.042c-0.092,0.274-6.939,2.289-7.782,2.112c-1.005,0.757-1.314,3.645-2.171,4.173  c-1.553-0.677-2.479-0.045-3.58-0.422l-1.493-1.552c-1.234-0.479-4.3,1.998-5.22,1.747c-0.829-0.501-2.383-5.059-2.48-6.059  c-0.947-0.872-2.127-1.461-2.939-2.48c-1.053,0.376-2.973,0.938-3.868-0.088c-0.665-1.363,0.336-4.906-1.096-2.957  c-2.485,3.384-1.39,6.954,2.71,8.408c1.646,1.809,1.484,5.581,2.806,7.685c1.233,1.963,2.077,3.159,3.104,5.336  c0.087,0.183,0.462,0.878,0.587,1.01c0.543,0.568,1.156,0.772,1.645,1.458c0.132,0.186,0.429,0.729,0.436,0.965  c0.038,1.256-0.557,2.542-0.971,3.707c0.076,0.326,0.588,2.772,0.683,2.913c0.488,0.73,4.136,5.56,5.335,6.225  c0.244,0.557,0.767,1.396,1.289,1.744c4.326,1.068,5.513-6.369,6.335-8.823c0.771,1.088,7.063-0.272,9.763,6.011  c0.916,2.131-2.973,4.047-3.287,5.657c-0.396,2.04,2.162,4.635,3.321,5.968c1.772,2.039,1.64,2.149,3.923,3.619  c1.379,2.224,0.576,3.717,0.676,6.103c2.562,3.918,1.339,2.656,0.592,5.941l0.649,0.898c0.29-0.24,0.767-0.508,1.161-0.473  c1.357,1.235,2.227,3.807,3.074,5.315l-0.252,0.567c1.381,2.714,2.5,4.394,1.479,7.411c-0.558,0.581-2.089,1.349-2.904,1.271  c-0.743,0.589-1.677,1.361-2.251,2.088c-0.365,0.465-2.144,6.171-2.057,6.806c0.936,1.664,2.006,3.039,2.162,4.968  c0.064,0.796,0.493,1.512,1.283,1.845l1.64,0.071c0.413,1.912,2.403,2.797,2.776,4.92l0.338,0.253l1.443,0.102  c0.768,0.835,1.055,1.254,2.07,1.977c0,0-0.562,1.145-0.948,1.389c-0.381,1.706-0.089,2.449,1.093,3.474  c0.031,0.112,0.056,0.393,0.134,0.476c1.147,1.223,1.643,2.759,2.614,3.886c3.627,4.202,8.109,7.086,12.177,10.726  c1.446,1.294,1.185,3.168,2.713,4.612c0.076,0.346,0.14,0.736,0.101,1.092c0.33,0.457,0.999,0.733,1.398,1.189  c2.016,0.146,4.006,0.436,3.977,2.896c0.621-0.013,2.186-0.038,2.766,0.199c2.523,3.457,4.119,5.918,7.66,8.421  c0.082,0.058-0.095,0.696-0.095,0.696l-0.968,0.548c0.33,0.771,1.293,1.179,1.871,1.727c1.023,0.973,1.331,2.584,2.273,3.355  l0.823-0.439c0.595-0.024,1.886,0.816,2.329,1.148l1.023,1.325c-0.564,1.619-2.959,4.45-0.502,6.028l0.961-0.071l0.558,0.426  c0.167,0.534,0.575,1.638,1.018,2.024c0.103,0.355,0.161,0.883-0.017,1.23c1.192,0.135,3.588,2.16,3.734,3.484  c0.863,0.926,2.783,0.95,3.949,1.896c0.884,0.716,1.059,3.552,3.622,3.149l0.972-0.797l0.531,0.372  c-0.385,0.874,0.092,3.575,0.092,3.575l2.126,1.119l1.604,2.061l-0.147,0.473c-0.274,0.183-0.813,0.63-0.859,0.993l0.302,0.588  c0.607-0.13,1.916,2.152,1.916,2.152c-0.363,0.742-0.631,1.561-0.824,2.362l0.463,1.01l0.774-0.743  c0.03-0.299,0.198-1.162,0.495-1.335l0.285-0.078c0.269,0.459,2.012,1.883,2.508,2.018c-0.061,0.653-1.169,2.629-0.664,3.007  c-0.028,1.53,2.629,4.991,4.046,4.663l1.552-0.142c0.769-0.401,2.488-1.237,3.373-1.321l2.218,0.507  c0.754,1.461,1.854,1.923,3.319,2.143l0.299,0.729c-0.158,0.18,0.961,0.822,1.562,1.085c0.924,0.766-0.65,2.617-0.332,3.207  c0.164,0.295,0.766,0.531,1.061,0.632c0.438-0.229,1.02-0.473,1.528-0.453l0.898,1.858c0,0,1.459,2.667,1.703,2.873  c0.457,0.118-0.108,1.408-0.987,1.913c-0.113,0.159-0.1,0.438-0.04,0.611l0.778,0.767l1.463,0.105l0.105,0.365l-0.384,1.197  l0.356,0.537l0.531,0.145c0.069-0.517,0.993-0.912,1.451-0.841c0.041,0.683,1.125,2.223,1.45,2.646l0.751,4.004l-2.332-1.933  l-1.094-0.24l-1.016,1.994c-0.692,0.482-0.516,1.899-1.168,2.663c0.016,0.365,0.754,0.936,1.023,1.105  c1.918-0.382,5.229,1.98,5.229,1.98l-0.514,0.716c-0.959-0.089-1.828,1.534-1.828,1.534l-0.291,0.724l-0.536,0.101l-1.581,0.284  l-1.713-0.081c-0.279,0.111-0.514,0.455-0.629,0.716c0.506,1.911-0.727,2.054-0.932,3.866l-1.297,0.179l-0.062,0.304l-0.282,1.923  c0.257,0.6,2.589,1.686,2.589,1.686s1.164,0.152,1.404,0.132L165.51,475l2.014,0.7c0.623,1.908-0.248,3.984-0.207,5.886  c0,0,2.097,0.891,3.131,1.22l0.508-0.186c0.982,0.104,2.219,1.039,2.963,0.993c0.236,0.291,0.797,1.034,0.791,1.437  c-0.146,0.267-0.428,0.942-0.272,1.254l0.577,0.875l0.559,0.203c0.158,0.52,0.35,1.007,0.594,1.49l-1.434,1.764l-0.119,0.5  l0.371,1.207l1.926,2.514c0.43,0.309,4.908,6.626,5.023,7.144c0.464-0.084,1.016,0.024,1.456,0.163l0.692,0.683  c0,0,0.461,1.413,0.506,1.683c-0.369,1.882-2.613,3.065-2.277,5.376c0.426,0.637,1.483,1.668,2.271,1.852l-0.545,0.689  c0.507,0.909,0.13,2.581,1.099,3.031c0.125,0.362-0.537,2.031-0.537,2.031c0.424,0.19,0.908,0.549,1.135,0.966  c0.082,0.707,0.286,3.048,0.286,3.048c0.356,0.863,1.085,5.542,1.085,5.542l1.08-0.903c0.239,0.38,1.033,1.295,1.549,1.308  c0.453-0.812,2.919-5.143,2.919-5.143c0.293-0.465,0.481-1.457,0.229-1.977c0.066-0.538,1.305-1.173,1.762-1.365l0.293-0.639  c0.658-0.516,2.664,0.428,3.006-0.311l0.448-0.078c0.927-0.656,0.949-2.442,1.283-2.687c0.914-0.001,2.751-1.438,3.347-2.007  c-0.023-1.582,1.764-2.695,1.801-3.599c-0.07-0.394-0.768-2.315-0.768-2.315c0.451-0.52,3.332-0.705,4.021-0.324l2.104,0.175  c0.669,1.148,4.575,3.899,4.473,4.373c-0.253,1.168-0.214,2.631-0.512,3.704c-0.464,1.667-1.426,3.177-1.77,4.91  c0.035,0.465,1.08,1.159,1.434,1.338c0.172,1.138-0.961,4.927-1.22,5.866c-0.821,0.854-4.179,2.755-5.243,3.15  c-1.192,1.197,0.676,5.272,0.309,6.677c-0.16,0.613-0.688,1.244-0.816,1.855c-0.229,1.089,0.256,2.308-0.506,3.312  c-2.375,1.242-3.137,3.187-6.165,3.359l-0.918-0.433c-0.468-0.518-0.828-1.402-0.945-2.082c-0.468-0.108-1.409,0.431-1.748,0.696  c-1.372-0.034-3.737-0.576-4.954-0.413c-0.155-0.486-1.936-1.25-2.389-1.487c-0.809,0.174-4.402,1.42-4.934,2.041  c0.527,0.736,1.111,1.813,1.242,2.727c-0.227,1.005-0.469,1.248-1.26,1.822l-1.152,1.936c-0.75,0.061-1.766,0.002-2.332,0.578  c-0.002,1.137-0.636,1.703-1.578,2.207l-0.893-0.095l-0.625-1.071c-1.379-0.034-2.424-0.421-3.659-0.919  c-0.634,0.103-1.678,2.237-1.532,3.072c0.302,0.342,1.774,1.821,1.732,2.23c0.379,0.384,1.15,0.793,1.697,0.834  c0.295,0.691,1.285,1.707,1.816,2.207c0.118,1.554,1.645,3.458,1.574,4.129l-0.256,0.554c-2.436,0.927-2.999,4.229-3.336,6.492  c0.836,1.297,1.793,2.846,1.799,4.451l1.199,0.453c0.018,0.217,0.151,1.151,0.108,1.314c-0.493,1.889-2.048,3.965-2.831,5.822  c-0.659,1.564-4.135,13.764-3.572,15.542c0.229,0.727,0.904,1.698,1.272,2.389c1.253,2.35-0.92,5.507-1.296,7.752  c0.76,1.528,0.355,2.866,0.873,4.42c0.557,1.675,1.875,3.209,2.158,4.9c0.668,3.987,1.246,16.06-0.206,19.394  c-0.554,1.271-2.317,2.919-2.536,4.011c-0.248,0.028-0.57-0.119-0.725-0.311c0.588-3.612-1.293-4.403-4.561-4.833  c-0.484-0.717-1.674-1.652-2.562-1.771l-0.729,0.162c-0.064,0.383-1.602,1.334-1.602,1.334c-0.271,0.479-3.34,1.899-4.006,2.16  l-1.506-0.51c-0.445,0.229-0.951,1.185-1.125,1.615c0.012,0.691,0.211,1.962,0.633,2.548c0.023,0.39-1.545,1.332-1.545,1.332  c-0.336,0.517-0.291,0.785-0.867,1.075c0.589,0.039,1.283,1.156,1.668,1.696l0.715,2.855l-0.342,1.003  c-0.452,0.339-0.927,0.607-1.207,1.112c-1.602-0.705-4.359-3.629-5.512-4.971c-3.891,0.696-4.256-2.548-7.201-2.187l-0.424,1.592  c0.484,0.623,0.893,1.645,0.938,2.437c-0.353,0.69-1.755,1.568-2.407,1.889l-1.658,1.727l-0.615,1.227  c-1.395,0.252-2.801,1.012-3.672,2.139l-1.674-0.091c-0.438-0.616-1.001-1.266-1.643-1.683c-0.612,2.115-1.084,2.866,0.879,4.531  c-0.002,2.046-0.159,3.112-1.079,5.055c-0.545,0.31-1.063,0.851-1.376,1.393c0.68,1.571-1.541,3.294,0.447,8.33l0.666,0.564  l1.814,0.314c0.035,1.717,2.154,1.872,1.968,3.923c-2.521,1.78-3.368,5.875-1.118,8.296c0.502,0.54,1.146,0.505,1.502,1.49  l0.158,2.518l0.699,0.169c0.423,0.293,0.674,2.597,0.768,3.136c-1.113,1.739-0.801,3.568-1.244,4.383  c0.645,0.257,1.779,0.872,2.198,1.463l0.577,2.325c0.156,0.628-1.396,1.371-1.431,2.146c-0.05,1.1,0.808,2.989,2.11,3  c1.277,1.009,1.578,2.769,3.024,3.903c0.149,0.812,0.301,4.18,1.489,4.285c-0.004,0.393,2.873,3.463,3.334,3.565l0.836-0.024  c0.309,0.289,1.418,1.264,1.418,1.264c1.023,1.813,1.679,3.634,3.576,4.66l0.357,0.784c1.149,0.249,2.66,2.19,4.078,2.785  c-0.016,0.333,1.264,1.578,1.532,2.108l-0.03,0.253c1.082,0.873,1.451,2.728,2.832,3.062l0.659,2.213  c-0.224,0.488-0.508,1.492-0.374,2.041c0.469,0.391,1.162,2.187,1.162,2.187c0.396-0.124,2.848-0.713,2.848-0.713  c0.42,0.779,0.355,1.975,0.682,2.855l0.499,0.311c0.554,1.144,0.688,2.542,1.181,3.755c0.63,1.547,1.756,2.851,2.461,4.406  l1.332,0.649c0.227,0.959,0.399,2.181,1.352,2.693c0.197,2,0.649,4.292,2.343,5.579c0.69-0.004,1.862-0.305,2.478-0.156  c0.107,0.385-0.156,1.01-0.368,1.315c0.011,1.064,0.411,4.183,1.089,5.042c0.907,0.628,2,0.849,3.088,0.771  c1.752,0.996,3.062,2.09,4.912,3.024c1.557,3.785,3.688,1.007,5.309,1.484c0.848,0.695,0.355,1.642,1.797,2.108  c0.389,0.719,0.114,1.567,0.211,2.325c0.07,0.556,1.883,1.787,2.322,2.727l1.004-0.021c1.388,1.28,3.49,2.757,5.072,3.835  c1.346,0.917,2.531,1.976,4.048,2.629c0.541,0.233,1.323,0.175,1.775,0.625c0.585,0.583,0.812,1.237,1.716,1.494  c0.275,0.481,0.569,1.09,0.604,1.656l0.801,1.152c0.284,0.327,1.308,0.418,1.692,0.402c1.305,1.498,4.108,0.943,5.66,2.724  l1.702-0.493c0.42,1.064,0.874,2.128,1.397,3.146c-0.796,2.399,0.746,5.828,3.11,6.742c0.152,0.394,0.316,1.085,0.174,1.507  c1.201,1.266,2.355,2.589,1.92,4.518c0.474,0.667,0.968,1.623,1.096,2.443c0.117,0.083,3.342,1.304,3.523,1.338  c1.523,1.577,1.908,4.065,3.438,5.37c0.921,0.357,2.45,0.71,3.337,0.054c0.299,1.094,0.442,4.409-0.535,5.062  c-0.207,0.623-0.053,1.677,0.18,2.268c0.197,0.297,0.761,0.868,1.159,0.875c0.469,1.417,0.968,3.159,0.138,4.535  c0.131,0.825,0.359,2.169,1.062,2.751c1.448-0.142,1.984,1.435,3.187,1.534c0.407,0.66,0.153,1.532,0.567,2.329  c0.56,1.081,1.467,1.657,1.646,2.98c0.09,0.663-0.252,2.07-0.046,2.49l-0.62,1.143c0.113,1.833,0.836,7.002,0.108,8.259  c0.114,0.684,0.663,3.595,1.058,4.065c-0.092,0.278-0.707,0.511-0.949,0.581c-0.23,0.337-0.396,1.059-0.232,1.453  c0.227,0.254,0.627,0.457,0.967,0.483c0.115,0.58,1.289,1.744,1.707,2.112c0.072,2.324-0.904,5.997,1.449,7.316  c0.422,0.84,0.16,1.939,0.759,2.667l-1.011,1.334c-0.296,1.257,1.391,3.896,1.243,4.91c-0.079,0.539-0.432,1.051-0.485,1.592  c-0.099,0.985,0.395,2.093-0.213,3.021c0.578,1.466,0.346,3.971-0.014,5.488l-1.256,1.139l0.127,1.818  c0.001,0.338-0.515,1.983-0.515,1.983c0.585,0.717,1.373,1.347,2.151,1.838c0.174,0.402,0.393,1.274,0.211,1.71l-1.086,0.55  l0.843,2.329l-0.315,1.453l0.575,1.152l-0.788,1.172c-2.539-0.495-9.9-1.324-9.252,2.727l-0.948,0.835  c0.235,0.673,1.216,1.081,1.88,1.021c0.281,0.583,0.61,1.177,1.014,1.686c-0.125,0.298-0.455,0.629-0.78,0.696  c-0.28,0.74-0.865,4.536-0.617,5.005c-0.591,1.104-1.919,2.303-2.903,3.031l-0.17,0.754c0.529,1.965,2.523,3.023,3.486,4.646  c0.431,0.155,1,0.341,1.467,0.264c0.828,0.803,1.68,1.111,2.652,1.643c0.197,0.774,0.848,2.131,1.531,2.615l1.24,0.905  c-0.069,1.006,0.346,2.325,0.807,3.2l-0.171,0.754c-0.518,0.533-3.825,2.255-3.015,3.335c2.784,1.571,1.752,4.35,2.188,7.803  c0.069,0.551,0.313,1.173,0.46,1.71c6.609,5.706,3.503,13.818,6.479,15.284c0.586-0.001,1.25-0.278,1.775-0.267  c1.211,0.025,2.018,0.937,2.871,0.919c1.204,1.603,0.738,3.927,1.867,5.56l1.02,0.679c4.869-0.086,4.808,6.933,11.459,6.704  c1.032,1.062,2.132,2.501,3.321,3.362l0.288,2.187l-0.75,0.582l-1.287,1.669l0.649,1.575c-0.055,1.176-1.019,1.435-0.466,3.132  l-0.227,0.642l0.348,1.568c-0.23,0.613-1.143,1.282-1.725,1.5c-1.235,1.276,0.396,3.473,1.43,4.184l0.404,1.545  c0.668,0.336,1.283,2.33,2.27,3.21l-0.232,1.23c1.588,2.073-1.656,2.509-0.068,5.237l-0.365,0.585  c-0.092,0.571,0.824,2.23,1.113,2.696l-0.152,1.596l0.962,0.679c0.233,0.628,1.011,2.609,1.495,3.068  c0.467,0.126,1.709,0.646,1.9,1.163c0.103,0.827-0.358,3.691-0.729,4.335c0.179,2.604,4.438,6.349,1.172,9.083l-1.355,0.184  c-1.053,0.63-0.471,3.364,0.105,4.146l0.551,0.229c1.241-0.416,4.955-3.952,6.424-2.129c0.375-0.087,1.767-0.492,1.943-0.879  c0.748-0.04,1.885,0.383,2.45,0.865l0.075,0.614c-0.402,0.593-1.188,1.141-1.809,1.467c0.265,1.157-0.159,2.706,0.164,3.67  c-0.311,0.806-1.096,1.726-1.813,2.197c0.161,0.801-0.493,2.083-1.069,2.595c1.01,1.666,0.904,3.259,1.193,5.062  c1.344,0.914,4.633,0.088,5.083,2.176c0.199,0.927,0.271,1.776,0.613,2.718l-0.282,2.486l-1.062,0.713  c-0.602,0.729-0.203,2.854-0.017,3.768l-0.712,0.896c-0.021,0.211,1.37,3.893,1.574,4.312c1.629-0.36,2.361,1.319,3.354,2.166  l0.171,1.615c0.931,0.966,2.948,1.534,4.239,1.453l0.701,1.439c-0.316,0.294-1,0.945-1.421,1.071  c-0.807,2.017-0.574,4.713-1.618,6.451c0.768,1.651-0.795,3.775-1.965,4.836l-1.777,1.787c-0.734,1.072-1.75,1.945-2.664,2.859  l0.351,0.541l-0.007,1.973c-0.453,0.462-0.86,0.92-1.42,1.251c-0.345,0.921-0.511,1.491-1.07,2.328  c-1.11,0.205-3.443,0.604-4.494,0.345l-0.844-1.268c-0.609-0.443-1.906,0.092-2.486,0.342c-0.768,0.33-1.785,0.642-2.49,1.014  c-0.215,0.113-1.818,3.604-1.851,3.96c-0.116,1.28,0.307,1.517,0.644,2.555c0.202,0.625-0.52,1.255-0.266,2.042l0.872,0.989  c0.264,0.87-1.21,3.487-1.21,3.487c-0.568,0.62-1.009,1.803-1.207,2.596l-1.393,1.724c0,0-1.41-0.083-1.762,0.014  c-0.701,0.272-1.612,1.182-1.807,1.916l-1.546,0.294c-0.468,2.69,1.477,6.849,0.509,8.995c-0.07,0.063-0.188,0.216-0.275,0.25  c-1.4,0.544-3.578,1.521-4.701,2.534c-0.721,0.649-1.099,1.67-1.946,2.339c-0.106,0.448,0.269,1.251,0.512,1.599l-0.61,0.331  c-0.541-0.195-1.308-0.435-1.896-0.378c-0.42,0.797-0.895,1.604-1.203,2.453c0.117,0.234,0.771,1.39,0.787,1.574  c0.465,5.529-7.065,7.476-7.014,10.361c0.13,7.367-6.646,8.938-3.42,12.324l-0.502,0.945c0,0-2.731,1.487-3.311,1.349  c-1.875,2.309-3.213,3.188-3.867,6.522c-0.916,0.416-1.837,0.945-2.625,1.574c-0.814-0.02-1.641-0.088-2.451,0.037  c-0.377,0.409-1.502,1.344-2.125,1.301l-0.922,2.126l-0.706,0.011c-0.345,2.818-0.159,4.934-3.13,6.285  c-0.311,0.074-2.711-1.545-2.963-1.423c-0.745-0.317-1.457-0.688-2.247-0.854c-1.727,0.362-1.386,3.693-2.837,4.822l0.566,3.271  l1.165,1.335l-0.072,2.605l-0.171,1.007l-1.686,1.331l-0.205,1.94c-0.962,0.13-2.103-0.358-2.969,0.054  c-0.234,0.464-1.082,1.922-1.607,2.115c-0.413,0.079-2.064,0.327-2.422,0.068l-0.432-0.73l-1.293-0.379  c-1.688,0.387-2.057,4.017-2.668,5.373l-1.434,0.717c-0.256,0.051-0.768-0.317-0.957-0.456l-0.877-0.761  c-0.316,0.381-1.258,1.17-1.82,1.078c-0.469,0.899-5.725,7.027-5.896,7.043l-1.108,1.223c0.004,0.592-0.736,1.841-1.225,2.176  l-1.131,0.943l-0.414,0.25c1.701,3.029-1.289,5.606-0.322,7.444l0.814,1.406c0.689,0.272,1.227,0.388,2.001,0.517  c0.026,0.437,1.007,1.605,1.007,1.605l-0.127,2.883l-0.582,0.584l1.303,2.305c0.304,0.243,0.896,1.629,0.896,1.629  c-0.688,6.417-0.904,2.657-2.127,5.809l0.623,1.21l-0.895,2.542c-0.436,0.774-1.512,0.654-2.094,1.273  c-1.028,1.095-3.08,5.833-3.478,7.562c-1.488,6.492-4.639,19.005-8.563,24.074l-5.051,7.153l-15.071,28.745H154.04l-79.452,153.334  v264.272h217l40.18-8.469l11.771,11.772h13.276c2.249-0.725,3.858-7.028,4.487-8.847c0.38-1.098-0.939-6.706-0.258-7.58l3.165-1.062  c-0.103-2.336-0.377-3.351-2.058-4.846c-0.158-2.344-0.276-4.291,0.939-6.434c-1.255-2.827-0.149-4.456,1.965-6.521  c1.447-0.18,1.095-0.29,2.311,0.084l0.943,2.291l1.112,0.527l2.14-0.176l1.543-1.149c0.905,0.624,2.662,0.119,3.51-0.354  l0.598,0.354l-0.256,2.292l3.339,3.345l0.601,4.144c-0.352,0.314-2.113,1.716-2.139,2.115c3.147,4.229,3.573,1.447,6.765,7.84  c0.937,0.674,1.798,0.546,2.825,0.794c1.629,0.394,3.04,1.704,4.622,2.112c0.19,0.049,1.282,0,1.539,0l1.456-0.97l1.454-0.004  c0.386,0.431,2.505,0.692,3.081,0.618c1.362,2.355,3.885,4.089,6.676,3.965c3.043-2.455,8.418,5.053,11.555,3.433l0.768,1.673  l1.543-0.615c2.914-0.686,5.809-3.6,7.703-5.818v-1.146l0.427-0.176l0.515,0.439c0.479,1.703,0.573,3.472,1.539,5.025l1.883,0.97  c1.275-0.554,5.256,1.114,5.906,2.024c0.301,1,1.091,2.224,1.283,3.176c0.064,0.327-0.212,2.307-0.259,2.674  c-0.569,4.47,0.293,5.246,2.565,9.312c0.158,0.283,0.01,0.654,0.084,0.971l-1.111,1.148c-0.281,0.807,1.189,6.089,1.41,7.654  l0.82,0.361c0.445-0.236,0.909-0.507,1.286-0.845c0.085-0.845,0.239-1.71,0.47-2.528h0.934c0.701,0.277,2.037,2.055,2.455,2.65  l1.988-1.085c0.981,0.299,2.243,0.121,3.274,0.121c1.263-1.61-1.006-0.705,2.808-4.217c0.156-0.144,1.286-0.362,1.286-0.362  c0.55,0.143,3.808,3.722,3.974,4.34c2.375,1.16,8.459-3.694,11.109-1.2c0.387,0.396,1.168,3.494,1.168,3.494  c0.355,1.506,0.412,3.062,0.697,4.579l-0.586,0.842l-4.092,0.479c-0.908,0.771-0.981,2.202-2.689,3.494l0.936,1.808  c0.984,0.402,2.258,0.026,3.154,0.605c1.16,0.746,2.031,2.137,3.506,2.409c0,2.447-2.457,6.872-2.459,6.988  c0.423,0.325,1.014,1.351,1.283,1.808c0.126,1.371-0.433,4.027-0.938,5.303c0.613,0.292,1.326,1.16,1.519,1.808l-0.351,0.845  l-2.691,1.808c0.076,0.896-0.43,4.944-1.17,5.181c-0.722-0.484-1.773-0.654-2.57-1.085c-0.727,0.248-1.1,0.996-1.873,1.085  c-0.484-0.383-1.24-0.725-1.869-0.605c-0.578,0.504-0.567,2.361-0.467,3.015c-2.885,3.253-2.081,3.281-2.576,7.472  c-1.033,0.778-2.885,2.544-2.575,3.978c0.424,1.958,5.896,8.083,7.478,7.954l0.817-1.206c0.552,0.365,2.919,2.534,2.919,2.534  c0.574,0.898,0.597,1.846,1.287,2.771c0.826,1.109,1.736,1.498,2.567,2.855c0.183,0.298,0.315,0.449,0.467,0.764  c1.269,2.617,1.022,4.508,2.684,7.354c0.175-0.111,0.702-1.085,0.702-1.085c0.707-0.195,2.833-0.914,3.271-1.567l-0.467-1.447  l0.703-0.602c1.754,0.348,5.795-1.414,5.843-3.49l0.004-1.207c0,0,2.491-0.432,2.921-0.963c4.287-5.298-2.387-6.299,2.58-13.979  l2.34-0.963l1.4,0.483c0.335,0.616,1.035,1.102,1.752,1.084l0.702-0.842c0.983-0.154,1.917,0.355,3.038,0.122  c-0.758-2.304,0.943-2.691,2.809-2.89l2.927-5.062c3.106,0.199,7.19,0.037,10.167,0.733c0,0,0.72-1.157,0.938-1.568  c0.473-0.244,0.939-0.508,1.348-0.849c1.832-1.531,4.268-3.263,6.566-3.884c0.545-0.148,3.077-1.404,3.077-1.404  c0.613,0.908,2.39,2.627,3.505,2.656l0.936,1.207c0.071,1.04,0.234,2.143,0.58,3.132c1.143,0.556,2.34-0.244,3.507,0.125  c0,0-0.216,1.938,0.096,2.734l0.786,0.817c-0.202,1.119,0.096,3.876,0.096,3.876c0.227,1.833,0.855,3.657,2.865,4.184  c0.285,0.969,0.492,1.967,0.686,2.957c0.492,0.146,0.852,0.251,1.385,0.206l0.691-0.611c0.633-1.713-0.334-2.193,1.097-3.771  c0,0,2.606-0.281,3.759-1.221c0.5,0.355,1.102,0.621,1.676,0.818c2.133,2.546,2.176,6.273,6.914,7.455l0.494-0.611  c-1.291-2.469-1.908-5.017,0.9-6.834l1.977-0.199l2.082-2.139c0.244-0.625,0.225-1.479,0.301-2.143  c2.045-2.022,2.697-2.388,5.641-2.439c0.094-1.112,1.045-2.006,1.883-2.649l-0.59-2.957c-0.691-0.543-1.471-1.354-1.875-2.146  c-0.016-0.521,1.061-3.477,0.994-4.383l1.486-0.916c-0.371-2.012,0.311-4.637,2.58-5.197c2.832-7.318,11-7.771,15.064-17.414  c-0.299-1.154-0.559-2.326-0.764-3.5c-0.914-5.221-0.125-4.848,1.27-8.779L687.33,1090.477z   M438.184,909.461c0.498-0.276,1.043-1.037,1.185-1.582l-0.229-1.402c-0.559-0.261-0.785-2.62-1.176-3.349l-0.383-0.173l-0.335,0.078  c-0.261,0.755,0.048,2.775,0.286,3.45l-0.364,0.273l0.573,0.511l-0.285,0.584c0.349,0.315,0.568,1.095,0.479,1.548L438.184,909.461z     M422.855,934.302l0.609-0.102l0.375-1.031c-0.035-0.415-0.6-0.966-0.925-1.162c-0.132-0.292-0.066-0.739,0.095-1.007l-0.131-0.507  c-0.385,0.257-0.947,0.463-1.418,0.429l-0.199,0.361C421.447,931.85,422.278,934.046,422.855,934.302z   M434.42,937.181l0.477-0.271c0.197-0.574,1.254-3.303,0.912-3.937l-0.275-0.03l-0.762,0.827l-1.05-0.183l-0.085,0.309l0.213,0.533  l-0.449,0.412c0.412,0.405,0.665,1.421,0.666,1.971L434.42,937.181z   M422.17,938.769l-0.154,0.382l0.275,1.332l0.204,0.014C422.703,940.156,422.316,939.081,422.17,938.769z   M434.958,964.718l1.06-0.517l0.378-1.227c0.239-0.178,1.177-1.008,1.478-0.902l0.199-0.473l-0.352-0.511l-0.059-1.794l-0.246-0.227  l-0.859,0.267c-0.38-0.424-1.422-0.094-2.045-0.503l-0.138,0.051c0.013,0.351,0.013,1.365-0.242,1.648l-0.388-0.088l-0.406-0.68  L433,960.18c0.262,1.284,1.523,2.115,1.613,3.413l-0.285,0.639l0.244,0.396L434.958,964.718z M554.849,978.256 L555.933,978.081 L555.798,977.827 L554.724,977.499 L554.66,977.975 L554.849,978.256 Z   M455.723,979.472l0.929-1.104c-0.509-0.748-0.884-2.205-1.063-3.068l-0.328-0.287l-0.605,0.077  c-0.309,0.319-0.312,1.286-0.246,1.677l0.758,1.102l0.092,1.459C455.28,979.505,455.604,979.615,455.723,979.472z   M513.318,982.575c-0.087-0.137,0.409-5.561,0.42-5.623l-0.482-0.986l0.342-0.501l0.249-0.05c0.737,0.765,1.835,0.778,2.464,1.523  l0.131,0.423l-0.141,0.334c-2.363-0.126-2.212,3.146-2.789,4.741L513.318,982.575z M456.067,984.436 L455.412,983.977 L455.332,983.639 L455.647,982.917 L455.496,981.852 L455.798,982.024 L456.307,983.207 L456.067,984.436 Z   M630.08,1052.39l0.139-1.48l1.039-0.96l0.062-0.418l-0.195-0.341c-0.271-0.474-0.908-0.635-1.295-1.005  c-1.013-0.969-2.777-5.688-4.252-5.663l-0.184,0.838l-0.729,0.687l0.043-0.896l-0.27-0.313l1.064-0.733  c0.172-0.315,0.162-0.893-0.004-1.207l-0.438-0.344l-0.832,0.205c-0.286-0.519-0.609-1.653-0.369-2.247  c-1.486-0.31-1.035-1.718-2.053-2.338l-0.227-1.265l-0.629-0.209c-0.369-0.317-0.568-1.151-0.549-1.608  c-1.172-0.001-2.962-1.94-3.148-2.893c-1.188,0.137-3.012-1.107-4.482-1.099l-0.643,0.409l-0.878-0.159l0.116-0.389l-0.189-0.199  l-0.941,0.064l-2.018-1.217l-0.092,0.308l1.334,0.977l0.387,0.037c0.262,0.329,0.561,0.808,0.584,1.243l-0.145,0.362l-0.441,0.074  l-1.48-0.729l-0.088,0.28c1.184,1.679,3.816,5.371,3.002,7.735l0.291,0.76l0.549,0.095c0.895,0.592,0.819,1.864,1.469,2.663  l-0.307,0.246c-0.609,0.921,0.064,2.303-0.559,3.238l0.966,1.477l-0.261,0.469l0.285,1.015l-0.928,0.933l-0.062,0.449  c0.826-0.066,1.295,0.543,1.783,0.483c0.328,0.44,1.402,2.089,1.861,2.277l0.062-0.419c-0.248-0.63-1.111-1.588-1.561-2.075  l0.064-0.503l0.502-0.186l0.877,0.408l0.146,0.814c1.873-0.998,4.018,1.9,6.799,1.061l0.229-0.554  c-0.18-0.97-0.215-2.143-0.994-2.849l0.039-0.445c0.279-0.273,1.312-0.25,1.661-0.221l0.62,0.629l0.275,0.061  c1.072,1.635,2.617,3.306,4.449,4.096l0.155,0.48L630.08,1052.39z   M634.439,1055.141l0.223-0.078l0.291-0.554l0.584-0.298l-0.188-0.396l0.373-0.635c-0.012-0.258,0.029-1.355-0.221-1.49l-0.498,0.101  C634.208,1052.497,633.314,1054.268,634.439,1055.141z   M619.472,1058.45l0.389-0.048c0.729-1.161,1.785-1.585,2.238-3.034l-0.078-0.284c-0.475,0.116-2.344,1.911-2.529,2.386  L619.472,1058.45z M627.019,1059.358 L627.442,1058.892 L628.078,1058.737 L627.919,1058.341 L626.978,1058.436 L625.808,1057.766 L625.417,1057.84 L626.037,1058.696 L625.699,1058.913 L625.972,1059.142 L626.72,1059.101 L627.019,1059.358 Z   M640.66,1067.121c0.557-0.58,1.26-1.763,0.825-2.589l-0.382-0.232l-0.338,0.33l-0.367,1.785L640.66,1067.121z   M636.296,1071.622c0.225-0.435,0.102-1.41-0.02-1.849c0.102-0.354,0.355-0.745,0.652-0.966c0.523,0.128,1.184,0.078,1.688-0.105  l0.285-0.442l-0.148-1.011l-3.443-0.182l-0.297-0.346l-0.443-0.037l-0.117-0.868l-0.386,0.021l-0.011,1.848l-0.398,0.494  c-0.584,0.24-1.541,0.24-2.15,0.152l-0.26,0.5l0.117,0.898l0.391-0.078l0.424-0.492  C634.337,1068.171,635.194,1070.497,636.296,1071.622z   M624.404,1073.172l0.648-2.115l-0.6-1.805l-0.967,0.064l-0.256,0.385C624.151,1070.534,624.121,1073.046,624.404,1073.172z   M640.457,1081.57l0.426-0.635c-0.176-0.378-0.4-0.827-0.721-1.108l-0.857-0.018l-0.11,0.166c0.368,0.242,0.649,0.937,0.771,1.332  L640.457,1081.57z   M643.246,1091.039l-0.279,1.534l-1.49,0.166l-0.199,0.304l0.602,0.237c0.061,0.166-0.049,0.418-0.201,0.5l-0.61,0.043l-0.171,0.277  l0.434,0.541l1.178,0.246l1.27,1.288l0.174-0.389l0.689,0.071l0.154,0.537l0.672-0.463l0.385,0.064l0.236,0.506l-0.162,1.258  l0.213,0.257c0.912,0.156,1.383,0.994,1.98,1.639l0.412,0.095l0.51-0.608c0.176-0.664-0.072-2.021-0.224-2.663l0.925-2.139  l-0.211-0.507l-0.412-0.067l-0.672,0.547l-0.182-0.537l0.516-0.997l-0.051-0.338l0.834-0.345c0.178-0.099-0.17-0.371-0.236-0.564  l0.17-0.223l0.362-0.074l0.771-2.7c-0.363-0.948-1.342-3.784-0.266-4.656l-0.396-0.821l-0.406-0.233l-0.484,0.608l-0.629-0.24  c-0.057-0.555-0.676-1.377-1.07-1.73l-0.33,0.051l-0.363,0.383l-0.717-0.071l-0.062,0.28l0.377,0.51l-0.666,0.099l-0.377-0.314  c-0.025-1.095,0.232-2.133,0.559-3.183l0.613-0.321l-0.627-0.437l-1.154-2.909c-0.223-0.197-0.674-0.169-0.936-0.102  c-0.576,0.42-0.707,2.123-0.217,2.571c-0.367,0.292-0.99,1.065-0.996,1.575l-0.331,0.104c-0.446,0.865,0,1.866,0.554,2.562  l-0.062,0.365l-0.588,0.49l-0.41-0.233l-0.359,0.078l-0.338,0.385l-0.037,0.361c0.498,0.722,1.027,2.037,0.991,2.937  c-0.12,0.431-0.612,0.915-0.989,1.126l-0.061,0.307l1.006,0.724l0.441,1.521L643.246,1091.039z   M289.766,1159.895c0.308,0.07,0.684,0.123,0.961,0.287l0.275-0.193c0.268-0.238,0.104-1.484,0.043-1.791l-0.467,0.162  c-0.328,0.523-0.719,1.012-1.089,1.504l-0.413,0.023l-0.141,0.42l0.33,0.114l0.303-0.111L289.766,1159.895z   M279.748,1188.135l1.158-0.467c0.229-0.942,1.094-1.308,1.287-2.143l-0.108-0.338l-0.689,0.024c-0.374,0.853-0.997,1.798-1.67,2.446  L279.748,1188.135z   M258.488,1236.688l1.043-0.047c0.252-0.441,0.178-1.32-0.012-1.764l-0.496,0.077  C258.761,1235.302,258.311,1236.227,258.488,1236.688z   M264.522,1242.065c0.655-0.1,1.448-0.964,1.676-1.545l0.004-0.442C265.487,1240.605,264.952,1241.293,264.522,1242.065z M254.82,1259.276 L255.155,1258.552 L255.076,1258.157 L254.25,1258.376 L254.165,1258.823 L254.82,1259.276 Z   M183.275,1272.387l0.548,1.632l0.827-2.129l-0.263-0.524C184.043,1271.405,183.459,1272.133,183.275,1272.387z   M322.402,1282.815l1.158-0.713l0.086-0.308l0.475-1.03l0.23-0.977c0.271-0.123,0.801-0.475,0.859-0.805l-0.38-0.449l-0.017-0.98  c0,0-0.441-0.982-0.289-1.209l-0.324-0.562l-0.41-0.202l-0.125-0.953l-0.439-0.227l-1.477-0.074l-0.384-0.004  c-0.14,0.776-0.445,1.664-0.134,2.434l0.678,0.625c0.605,1.092-0.217,2.18-1.016,2.899l-0.148,1.173l0.734,0.486l0.62,0.845  L322.402,1282.815z   M159.83,1315.428c0.059-0.42-0.26-1.03-0.541-1.317l-0.275,0.558l-0.41,0.027l-0.761-1.237l0.223-0.642l-0.358-0.227l0.225-0.559  l-0.273-0.392l0.276-0.419l-0.407-0.618c-0.071-0.158,0.222-0.27,0.332-0.224l0.488,0.453l0.439-0.361l0.309-1.511  c-0.307-0.241-0.437-0.905-0.43-1.264l-0.463-0.338c0.557-0.338,1.52-1.181,1.732-1.835l0.439,0.227l0.239,0.868l0.903,0.479  l0.767-0.107l0.136,0.507c-0.215,0.751-0.65,1.513-1.136,2.118c0.678,1.019,0.729,1.918,0.177,3.025l-0.328-0.004l-0.19-0.699  c-0.319,0.012-0.651,0.356-0.796,0.611c-0.146,0.412-0.213,1.166-0.064,1.596l0.33,0.226l-0.086,0.53l0.242,0.477l-0.193,0.504  L159.83,1315.428z M304.043,1316.966 L303.771,1316.601 L303.885,1316.182 L303.781,1315.787 L304.057,1315.509 L304.52,1315.935 L304.598,1316.328 L304.043,1316.966 Z   M153.154,1325.522l1.069-0.051c0.192-1.222,2.099-0.834,2.503-3.092l0.414-0.361l-0.161-0.393l-0.604,0.055l-0.048-0.98  l-0.354-0.283l-0.295-1.119c0.306-0.507,0.288-1.66,0.202-2.21l-2.034,1.386l0.244,0.477l0.711-0.051  c-0.002,0.408-0.096,1.853-0.42,2.152l-1.342-0.064l-0.023-0.949l-0.379,0.055l-0.42,1.342l-0.687,0.611l-0.085,0.334l0.189,0.419  l0.604-0.526l0.328,0.057l0.624,1.291l0.495-0.054l0.16,0.311l-0.521,0.442L153.154,1325.522z   M304.709,1327.415l0.496-0.277l-0.49-0.537c0.046-0.377-0.225-0.918-0.479-1.18l-0.246-0.057c-0.171,0.258,0.004,0.895,0.099,1.148  l-0.226,0.612l0.271,0.253L304.709,1327.415z   M342.268,1315.063l-0.226-0.618l-0.545-0.452l-0.298,0.051l-0.307,0.389l-0.632,0.188l-0.253,0.416l-0.961,0.324l0.324,0.368  l-0.387,0.389l-0.302-0.003l-0.194,0.446l0.188,0.307l-0.695,1.001l0.242,0.534l-0.089,0.561l0.296,0.533l-0.033,0.45  c0.963,0.158,1.932,1.813,1.723,2.677l-0.524,0.526c0.269,0.354,1.529,2.241,1.919,2.233l0.604-0.162  c0.315,0.146,0.626,0.36,0.955,0.46c2.215,0.672,3.839,1.587,5.855,2.446c1.004,0.428,1.498,2.065,2.33,2.325l0.164-0.054  l0.004-0.393l-0.838-0.879c-0.369-0.441,0.913-0.756,1.104-0.797l-0.538-0.736l-0.023-0.393l0.443-0.47l-0.194-2.298l0.331-0.527  l-0.265-0.645c1.021-1.982-0.303-3.055-0.52-5.019l-0.649-0.706l-0.302,0.023l-0.17,0.504l-0.519-0.119  c-0.207-0.165-0.183-0.958-0.208-1.206l0.559-0.639l0.086-0.446l-0.795-0.037l-0.377-0.368c-0.746-0.001-1.592-0.156-2.27-0.477  c-0.27-0.612-0.83-1.271-1.576-1.051c-0.535,0.154-1.139,1.224-1.305,1.689l-0.549,0.136L342.268,1315.063z   M305.155,1332.176l0.31-0.92l0.498-0.361l0.059-0.389l-0.219-0.256c-0.361-0.084-0.914,0.151-1.18,0.381l0.178,1.346  L305.155,1332.176z   M302.99,1332.433l-0.512-0.845l0.416-0.67l0.358,0.119l0.21,0.783c0.157,0.255,0.743,0.437,1.006,0.514l0.27,0.48  C304.15,1332.768,303.557,1332.582,302.99,1332.433z M308.958,1337.745 L309.322,1336.978 L308.84,1335.937 L308.568,1335.795 L308.348,1335.93 L308.387,1337.471 L308.66,1337.782 Z   M304.719,1337.853l0.607-0.611c0.252-0.424,0.006-1.546-0.145-1.96l0.223-0.473l-0.16-0.254l-0.795,0.021l-1-1.355l-0.271-0.114  l-0.197,0.642l-0.305,0.25l0.242,0.338l0.41-0.051l0.27,0.477c-0.207,0.81-0.441,2.56,0.518,3.059L304.719,1337.853z M303.227,1345.254 L303.427,1344.332 L303.127,1343.713 L302.773,1343.764 L302.711,1344.463 L302.328,1344.683 L302.354,1344.909 L303.227,1345.254 Z   M303.978,1346.632l-0.708-0.313l0.055-0.254c0.6-0.063,1.289-0.329,1.759-0.71l-0.378-0.368l0.191-0.192l0.682,0.176l0.194-0.166  l-0.542-0.452l1.07-0.325l0.434,0.339l1.449,0.182c0.101,0.039,0.225,0.252,0.104,0.338l-0.327,0.055  c0.111,0.248,0.087,0.636-0.062,0.865l0.105,0.477l0.406,0.229l-1.043,0.521l0.545,0.256l0.131,0.45l-0.769,0.047l-0.302,0.335  l0.466,0.297l0.103,0.24c-0.619,0.387-2.476,1.505-3.265,0.974l-0.759-0.849l-0.298-0.058l-0.22,0.166l-0.272-0.146l0.249-0.389  c0.019-0.374-0.115-0.991-0.399-1.264l0.11-0.25l0.332-0.023l0.299,0.227L303.978,1346.632z   M151.051,1350.614l-0.473,0.026l-0.341,0.277l-0.216-0.477l0.275-0.727l0.302-0.081  C150.641,1349.968,150.804,1350.375,151.051,1350.614z   M150.343,1351.336c0.456-0.081,1.294,0.505,1.584,0.794l0.188,0.45l-0.164,0.334l-0.876,0.412l-0.52-0.28L150.343,1351.336z   M145.814,1354.476c0.512-0.062,1.283-0.514,1.539-0.974l0.223-0.977l0.794-0.639c-0.262-0.412,0.087-1.599,0.256-1.986l-0.134-0.309  l-0.385,0.082l-0.275,0.811l-1.18,0.777c-0.009,0.67-0.578,1.725-0.969,2.233L145.814,1354.476z M304.879,1355.372 L305.319,1354.844 L305.158,1354.537 L304.67,1354.365 L304.236,1353.743 L303.855,1353.682 L303.413,1354.239 L303.381,1354.574 L303.518,1354.77 L304.879,1355.372 Z   M95.71,1357.432l-0.22,0.447c-0.573-0.13-3.041-1.91-3.192-2.505l-0.626-0.084l-0.439,0.223l-0.164,0.504  c0.426,0.627,1.301,2.189,1.271,2.997c-0.895-0.199-1.872-0.98-2.043-1.909l-0.354-0.03l-0.276,0.28l-1.775-0.483l-0.134-0.618  l0.82-0.077l0.791,0.422l0.194-0.534l-0.218-0.979h-0.847l0.168-1.372l1.86,0.007l0.22-0.558l0.876,0.084l0.659-0.78l0.768-0.166  l0.627,0.312l0.488,1.064l0.929,0.368l0.216,0.338l-0.11,0.419l-0.876,0.312c-0.141,0.098-0.18,0.364-0.092,0.506  C94.65,1355.926,95.654,1356.858,95.71,1357.432z   M85.096,1359.463l0.795-0.334l0.19-0.585l-0.108-0.423l-0.41-0.111c-0.346,0.245-0.578,0.744-0.742,1.115L85.096,1359.463z   M303.551,1359.667l0.932-0.044l-0.184-0.842l-0.328-0.172c-0.214,0.095-0.422,0.333-0.495,0.554L303.551,1359.667z   M342.95,1342.081c0.311-0.102,1.304-0.396,1.614-0.232l0.267,0.729c1.026,0.744,1.548,0.452,2.649,0.396  c0.244,0.264,0.797,0.421,1.146,0.375c0.452-0.145,0.877-0.567,1.184-0.909l0.184-0.72c0.314-0.172,0.564-0.585,0.656-0.92  c-0.166-0.398-0.286-0.974-0.154-1.401l0.876,0.401l0.249-0.331l0.273,0.227l0.174,1.483l0.82,0.291l0.238,0.338  c0.312,0.732-1.623,2.651-1.764,3.758c-0.111,0.068-0.363,0.17-0.439,0.273c-2.516,3.417-1.668,2.57-1.129,5.809l0.537,0.596  c-0.055,0.869,1.09,1.777,0.991,2.081l-2.487-0.114c-0.713,0.465-1.079,1.206-1.473,1.942l-1.289,0.433  c-0.883,0.68-1.143,2.804-2.471,3.387l-1.771-0.359c-0.832,0.221-2.703,1.075-3.084,1.954l-0.381-0.034  c-0.208-0.346-1.007-1.521-1.352-1.527c-0.771,0.313-1.829,0.465-2.657,0.392c-0.085-0.239-0.345-1.062-0.151-1.29l0.656,0.26  l0.167-0.335c-0.529-2.919,0.153-4.957-1.919-7.606l0.875,0.095c0.279-0.624,0.504-1.271,0.536-1.95  c0.245-5.115,0.187-4.173-1.939-7.775l0.361-0.361c1.864-0.191,6.04-1.481,7.293-1.426l1.296,1.47  C342.092,1341.476,342.422,1341.937,342.95,1342.081z   M91.939,1364.721l-0.328-0.114c-0.055-0.348-0.328-1.55-0.676-1.737c-0.531,0.066-1.582-0.903-1.611-1.433l-0.354-0.058  l-0.275,0.308l-0.761-0.396c-0.155-0.486-0.519-0.983-0.899-1.317l0.057-0.308l0.245-0.223l1.038,0.422l0.602-0.361  c0.01-0.408,0.411-0.938,0.716-1.173l0.354-0.081c0.475,0.346,0.945,1.257,1.115,1.795l-0.138,0.223l-0.63,0.277l-0.082,0.307  l0.164,0.338c0.275-0.205,0.852-0.168,1.148-0.051l0.242,0.7l0.656,0.253l0.08,0.758l0.38,0.419l-0.003,1.148l-0.765-0.172  L91.939,1364.721z   M303.335,1365.401l0.272-0.023c0.089-0.398,0.464-1.07,0.859-1.25l0.039-1.457l-0.516-0.453l-0.299-0.003l-0.811,1.812  L303.335,1365.401z   M91.113,1366.844c0.254-0.184,0.398-0.594,0.413-0.893l-0.246-0.533l-0.41,0.054l-0.466,0.473l-0.056,0.338l0.272,0.504  L91.113,1366.844z   M340.158,1365.192l-0.371,1.533l0.49,0.258l0.328-0.082c-0.164-0.316,0.189-1.129,0.344-1.395l-0.108-0.281L340.158,1365.192z   M336.871,1363.417l0.434,0.173l0.217,0.337l-0.752,1.085c0.107,0.35,0.543,1.337,0.941,1.467l0.385-0.023l0.078,0.28l-0.338,0.861  c-0.988-0.119-2.395,1.21-3.252-0.063l0.335-0.558l0.794-0.044l0.305-0.643l-0.787-0.482l-0.022-0.339L336.871,1363.417z   M259.738,1370.94l-0.324-0.284c0.252-0.669,1.072-2.243,1.771-2.585l0.16,0.28c-0.16,0.75-0.715,2.027-1.332,2.534L259.738,1370.94z     M330.471,1374.312l0.197-0.5l-0.24-0.842l-0.381-0.172l-0.167,0.276c0.003,0.285,0.036,0.936,0.263,1.152L330.471,1374.312z M338.363,1374.573 L338.893,1373.795 L338.516,1373.342 L338.236,1373.731 L337.39,1373.636 L337.144,1373.775 L337.846,1374.454 L338.363,1374.573 Z   M137.203,1390.661c-0.132-0.239,0.368-3.93,0.373-4.39l0.984,0.034c0.393-0.163,3.422-6.163,3.639-6.947l0.384-0.193l0.325,0.588  l0.709,0.173l0.16,0.364c-0.304,0.877-1.462,3.412-2.447,3.765l-1.023,2.707l0.682-0.135l0.053,0.419  c-0.467,0.456-1.199,1.513-1.236,2.203C139.363,1389.98,138.014,1390.59,137.203,1390.661z   M145.782,1395.881l0.384-0.415c-0.26-0.482-0.236-1.478-0.128-1.987l-2.604-3.426l-0.105-1.008l-0.246-0.03  c-1.041,2.165,0.549,5.322,2.182,6.782L145.782,1395.881z   M84.713,1405.233l0.163-0.7l0.302-0.108l0.004-0.783c-0.443-0.507-0.867-1.321-0.978-1.99l-0.354,0.139  c0.11,0.548,0.061,1.486-0.227,1.986l0.844,1.345L84.713,1405.233z   M139.699,1405.446c-0.225,0.443,0.373,1.71,0.594,2.074l-0.275,0.25c-1.123-0.327-3.38,0.806-4.232-0.023  c-0.522-0.426,0.268-10.603,0.299-11.692l0.686-0.581c0.309-1.411-0.179-2.728,0.128-4.113l0.275-0.223l2.897-0.29l0.38,0.308  l-0.468,0.892l0.164,0.365l0.245-0.224l0.652-0.051l0.519,0.365l0.191,0.758l-0.556,1.591l0.243,0.507  c-0.463,1.033-1.713,1.533-2.033,2.424l0.291,2.098c0.258-3.524,0.911-2.007,2.038-3.652l0.252-1.538l0.413-0.446l0.431,1.372  l-0.253,1.034l0.324,0.757l0.253-1.118l0.328,0.003l1.142,0.983l0.079,0.562l-0.302,0.419l-0.145,1.818l0.301-0.166l0.25-1.146  c0.531,0.496,1.152,2.265,0.726,2.913l-0.712,0.135l0.488,0.561c-0.106,0.26-0.445,1.049-0.715,1.173l-0.19-0.364l-0.712,0.442  c0.158,0.308-0.152,1.056-0.305,1.314l-0.52-0.312c0.064-0.483-0.691-1.701-0.75-2.467l-0.227,1.484l0.463,0.195  c-0.193,0.478-0.419,2.421-0.532,2.572l0.354,0.253l-0.928,0.47l-0.574-0.142L139.699,1405.446z   M141.123,1418.743c0.434,1.856-0.691,1.516-1.279,2.814c-0.692,1.531-1.05,3.762-1.689,5.447l-0.246,0.108  c-0.193-0.942-2.338-4.802-2.268-5.184c3.865-5.704-0.053-10.075,0.352-11.27c0.4-0.884,1.893-1.174,2.621-0.548l0.459,0.953  c1.727-0.381,4.109,0.619,5.263,1.875l0.105,0.393c-0.562,1.697-1.325,3.363-1.989,5.025l-0.219,0.107l-0.381-0.111l-0.242,0.277  L141.123,1418.743z M83.646,1433.395 L83.322,1432.303 L82.94,1432.331 L82.203,1433.084 L82.501,1433.307 L83.646,1433.395 Z   M64.109,1458.027l0.193-0.393l-0.407-1.091c0.075-0.123,0.123-3.766,0.036-3.94l-0.299-0.199l-0.301,0.503l-0.873,0.193  l-0.355,0.392c-0.123,1.021,1.275,2.595,1.271,4.224l0.272,0.254L64.109,1458.027z M62.465,1461.767 L62.902,1461.686 L63.229,1461.071 L62.715,1460.372 L62.441,1460.399 L62.465,1461.767 Z M62.32,1465.6 L62.593,1465.488 L62.924,1464.258 L62.842,1464.008 L61.943,1463.808 L62.32,1465.6 Z   M63.916,1472.064l0.134-0.111c-0.194-0.554-0.858-1.222-1.302-1.571l-0.411-0.058l-0.056,0.308l0.488,0.814L63.916,1472.064z M64.207,1474.917 L64.752,1474.385 L64.564,1474.132 L63.637,1474.017 L62.957,1473.487 L62.576,1473.594 L62.629,1474.017 L63.416,1474.801 L64.207,1474.917 Z   M174.23,1498.959c0.502-0.088,2.314-0.503,2.617-0.96c-0.133-0.335-0.576-0.595-0.896-0.706c-0.538,0.084-1.089,0.367-1.554,0.636  l-0.303,0.78L174.23,1498.959z   M164.916,1498.987l0.469-0.92l-0.266-1.229c-0.417-0.216-0.84-0.622-1.057-1.041c-0.197,0.558-0.457,1.915-0.15,2.487  L164.916,1498.987z   M181.479,1502.838l-0.136-0.841l-0.813-0.229c-0.131-0.296-0.494-0.799-0.84-0.872c-0.044-0.602-0.208-2.195-0.555-2.714l0.19-0.419  c0.489,0.583,0.825,1.583,0.915,2.325l0.598,0.118c0.051,0.536,0.469,1.389,0.941,1.683l0.053,0.558L181.479,1502.838z   M166.148,1507.408l0.248-0.027c0.114-0.476,0.168-1.206-0.018-1.676l-0.354-0.28l-0.273,0.361  C165.715,1506.277,165.857,1506.999,166.148,1507.408z   M176.222,1507.695c0.196-0.414,0.066-1.181-0.046-1.595l-0.354,0.027c-0.197,0.355-0.072,1.088,0.02,1.453L176.222,1507.695z   M164.438,1512.372l0.357-0.695c0.057-0.433-0.1-1.083-0.374-1.427c0.196-0.47,0.06-1.404-0.044-1.875l-0.492,0.054l-0.164,0.28  l0.185,1.284l-0.276,0.308c-0.027,0.435,0.369,1.048,0.646,1.345l-0.189,0.25L164.438,1512.372z   M169.88,1512.659l0.134-0.111c0.104-0.648-0.01-1.377-0.124-2.014l-0.19,0.223l-0.17,1.396L169.88,1512.659z   M171.785,1517.336l0.027-0.335c-0.508-0.539-2.073-2.237-2.323-2.92C169.197,1515.782,170.337,1516.676,171.785,1517.336z   M178.256,1523.023l0.816-0.05l0.365-1.927l0.547-0.386l0.057-0.307l-0.352-0.48l0.499-1.811l-0.374-0.869  c0.424-0.382,1.242-1.408,1.236-2.034l-0.351-0.503c0.354-0.393,0.585-1.24,0.524-1.758l-0.324-0.03  c-0.092-0.406,0.154-1.048,0.334-1.396l0.19-0.111l-0.128-1.092l-0.6-0.03l-0.463,0.276l0.187,0.562l-0.246,0.247l-0.542-0.646  l-0.226,1.258c-0.444,0.54-1.481,1.701-2.158,1.97c-0.274,1.49-1.167,2.491-1.307,4.184l-0.98,0.497l0.079,0.253l0.436,0.115  l-0.029,0.25l-0.246,0.224l-2.034-0.852l-0.354,0.08c0.535,0.755,2.188,2.545,3.222,2.619l1.253-0.604l0.574,0.115l0.217,0.223  c0.156,0.531,0.162,1.199,0.018,1.733L178.256,1523.023z M186.139,1524.112 L186.904,1523.473 L186.176,1522.851 L185.871,1523.689 L186.139,1524.112 Z   M161.822,1528.373c0.241-0.706,0.145-1.889-0.125-2.571l-0.377-0.227l-0.873,0.078l-0.137,0.334l0.996,2.102L161.822,1528.373z M159.217,1539.524 L159.627,1539.44 L159.788,1539.135 L159.027,1537.936 L158.62,1538.659 L159.217,1539.524 Z   M156.639,1542.346l0.436-0.085l0.65-0.585l0.189-0.977l-0.381-0.557c-0.512,0.322-1.336,0.473-1.928,0.473l-0.273,0.504l0.139,0.642  L156.639,1542.346z   M171.967,1528.518l-0.108,0.308l0.292,0.784l-0.299,0.219l-1.099-2.743l0.704-0.081c-0.016-0.23-0.164-0.507-0.348-0.646  l-0.76-0.062l-0.46-0.838l0.571-0.054c-0.065-0.393-0.963-0.96-1.273-1.126c-0.117-0.699-0.509-1.601-0.994-2.129l0.111-0.672  l0.193-0.081l0.158,0.699c0.234,0.135,0.584,0.316,0.869,0.284l0.384-0.724l-0.627,0.078c0.093-0.679-0.113-1.871-0.584-2.406  l0.056-0.308c1.695,2.014,3.506,3.285,5.607,4.815c0.747,0.073,1.879-0.56,2.32-1.132l0.104,0.365l-0.826,1.896  c0.038,0.703,1.539,2.168,2.027,2.582l-0.003,0.392c-0.688,0.665-1.335,2.175-0.915,3.133c0.652,1.492,0.062,2.799,0.465,3.693  c0.158,0.35,0.91,1.398,0.979,1.673c0.391,1.587-0.234,3.804-0.539,5.362c-0.021,0.117-0.13,0.266-0.184,0.372  c-0.949,1.905-0.622,3.87-1.387,5.185c-0.48-0.902-0.311-2.251-0.709-3.35l-0.844-0.392l-0.078,2.849l-0.355-0.28  c-0.824-1.37-0.133-3.022-0.409-4.384c-0.429-2.111-1.523-3.191-0.687-5.552l-0.491-1.396l0.19-0.393l0.328-0.026l0.652,1.03  l0.299,0.139c0.633-0.8,1.775-1.93,1.588-2.926C175.615,1531.232,173.345,1528.805,171.967,1528.518z   M231.195,1548.76l0.515-0.058c0.595-0.317,1.808-3.54,1.874-4.384l-0.082-0.223l-1.168-0.361  C232.169,1543.88,231.021,1548.297,231.195,1548.76z   M223.098,1551.301l0.352-0.17c0.295-0.903,0.094-2.693-0.19-3.544l1.169-1.927c-0.164-0.638-0.887-3.01-1.525-3.321  c-0.514-0.236-1.42-0.222-1.956-0.112l-0.299,0.335C220.484,1543.107,222.893,1550.616,223.098,1551.301z   M226.225,1553.143c0.398-0.214,1.182-0.396,1.631-0.25c0.424-0.191,1.089-2.189,1.277-2.653l-0.139-0.503  c-0.734-0.533-1.916-2.251-2.5-2.484l-1.361,0.084C224.303,1547.801,225.056,1552.827,226.225,1553.143z M197.445,1556.336 L197.963,1555.525 L197.636,1555.022 L197.229,1555.079 L197.038,1555.583 L197.445,1556.336 Z   M222.885,1559.871c1.236-2.472-1.076-2.305-0.41-4.13l0.68,0.055l0.299-0.308c0.049-0.43,0.283-2.437-0.191-2.765  c-0.33-0.021-1.068,0.856-1.25,1.092l-0.354-0.195c-0.264-0.533-0.492-1.437-0.407-2.038l-0.462-0.419l-1.008,0.027  c-1.569-1.19-1.527,0.189-2.664-0.055l-0.676,1.508l0.434,0.726l0.761,0.055C219.165,1554.306,222.369,1559.891,222.885,1559.871z   M149.053,1560.583l-0.328-0.081l-0.925-0.949c0.233-0.404,0.897-0.805,1.331-0.923l0.162-0.253l0.57-0.111l0.463,0.28  c1.072-0.209,1.424,0.29,1.984,1.169l-0.488,0.477l-2.336,0.084L149.053,1560.583z   M162.235,1564.176l0.38-0.17c0.357-0.503,0.709-1.164,0.788-1.787l-0.138-0.361l-0.488,0.195l-0.676,1.73L162.235,1564.176z   M148.324,1565.889c0.527,0.035,1.385-0.37,1.791-0.669l0.766,0.054l0.541-0.672c-0.26-0.334-1.751-0.52-2.148-0.555L148,1565.47  L148.324,1565.889z   M198.947,1563.622c-0.151,0.253,0.789,2.646,0.926,3.041l-0.135,0.393c-0.431-0.281-2.15-1.59-2.637-1.45l-0.191,0.251  c0.167,0.376,0.634,1.688,0.411,2.095l-0.464,0.085c-1.164-0.324-1.234-2.148-1.469-3.1l0.271-0.338l1.113-0.334l-0.817-1.619  l0.216-0.361c-0.277-0.742-0.59-1.909-0.495-2.717C196.734,1560.299,197.38,1562.627,198.947,1563.622z   M196.891,1573.368l0.325-0.169l0.216-0.669l-0.652-2.291l-0.246,0.057c-0.281,0.507-0.32,2.084-0.325,2.653l0.302,0.361  L196.891,1573.368z   M242.131,1581.092l0.271-0.169l0.164-0.53c-0.309-0.693-0.529-1.525-0.544-2.288l-0.843-1.034l-0.299,0.335  c-0.119,0.282,0.985,2.604,0.978,3.518L242.131,1581.092z   M150.654,1581.775l0.299-0.669l-0.381-0.922c-0.299-0.025-0.691,0.149-0.869,0.392l-0.49-0.111c-0.613,0.52-1.52,1.842-1.437,2.71  l0.138,0.392C149.079,1584.109,149.747,1582.119,150.654,1581.775z M241.645,1584.333 L241.969,1584.276 L242.187,1583.857 L241.805,1582.934 L241.455,1582.853 L241.152,1583.161 L241.183,1583.941 L241.645,1584.333 Z   M240.857,1589.777l0.056,0.28l-0.544,0.95c-0.616-0.387-1.631-1.14-2.012-1.788v-0.364l0.463-0.112L240.857,1589.777z   M144.584,1594.126l0.325-0.196c0.105-0.868,1.147-1.822,0.706-2.68c-0.291,0.348-1.684,1.796-1.576,2.234l0.112,0.307  L144.584,1594.126z   M143.26,1597.229l1.246-2.318l-0.082-0.227c-0.597,0.155-1.23,1.182-1.41,1.706L143.26,1597.229z   M232.432,1579.389l-0.652-0.084c-0.266-0.394-0.364-1.202-0.189-1.646l-0.164-0.223l-0.572-0.03  c-0.225-0.652-0.888-1.546-1.492-1.899c-0.39-0.627-0.093-2.629-0.303-3.571c1.684-1.836,5.617,0.893,6.956,0.611  c0.251-0.233,1.003-0.83,1.386-0.78c0.093,0.065,0.288,0.157,0.354,0.25c4.457,6.318,0.54,5.567,0.898,7.734  c0.18,1.087,0.803,3.152,0.273,4.303l-0.27,0.057l-0.354-0.477l0.026-1.088c-0.268-0.854-2.963-1.174-3.18-0.922l-0.271,0.753  l-0.381,0.058l-0.705-0.419l-0.164,0.111c0.793,1.772-1.371,2.736,0.422,5.954c1.154,2.07,5.553,7.334,2.33,9.797l-0.652,0.139  c-0.566-0.328-1.092-0.865-1.061-1.564c-0.649-0.58-0.916-1.268-1.467-1.814c-0.148-0.149-0.942-0.628-1.006-0.754  c-1.391-2.764-3.242-5.637-3.996-8.658c-0.328-1.311,0.381-2.419,0.107-3.592l-0.548-2.355l0.328-0.727  c-0.108-0.702-0.907-1.616-1.522-1.926l0.217-0.393l0.951,0.254l0.706-0.254l0.788,0.169c1.312,1.201,1.318,2.728,2.283,4.049  l0.596,0.28l0.437-0.504L232.432,1579.389z   M250.369,1606.116c0.186-0.75-1.504-3.289-1.874-3.879l-0.216,0.111c-0.327,0.48,0.125,2.525-0.082,3.434l0.138,0.253l0.351,0.027  l0.545-0.28C249.487,1605.947,250.046,1606.21,250.369,1606.116z   M260.611,1612.07l0.299-0.726l-0.246-1.008c0.172-0.316,0.525-0.636,0.869-0.754l-0.025-0.557l-0.706-0.085  c-0.637-1.37-1.331-1.999-2.825-1.622l-0.111,0.335l0.627,1.511l-0.19,0.811C258.637,1610.403,260.035,1612.032,260.611,1612.07z   M283.181,1613.307l0.41-0.365c0.497-0.928,0.19-3.355-0.03-4.302l-0.978,0.865C282.019,1610.698,282.389,1612.307,283.181,1613.307z     M254.339,1618.382l0.406-0.142l0.544-0.949c0.053-0.551-0.682-1.765-0.98-2.18l-0.57,0.169l-0.135,0.334  C253.971,1616.419,254.322,1617.487,254.339,1618.382z   M232.18,1628.466c0.771,0.023,1.537-0.337,2.228-0.646l0.19-0.277c-0.08-0.302-0.486-0.538-0.761-0.615  c-0.565-0.089-1.482,0.491-1.848,0.865l-0.108,0.335L232.18,1628.466z   M270.227,1630.119c0.345-0.079,0.965-0.368,1.113-0.727l-0.135-0.446l0.516-1.898c0.527-0.268,1.271-0.958,1.466-1.538  c0.473-0.021,1.708-0.252,2.009-0.696c0.473,0.035,2.646-0.279,2.824-0.783l-0.053-0.308c-0.799-0.269-2.719-0.714-2.963-1.342  c-1.049,0.294-2.291,0.208-3.231,0.588l-0.026-0.699l-1.357-1.511l-0.272,0.03c-0.12,0.253-0.569,1.426-0.84,1.48l-0.843,0.026  l-0.382,0.474c0.949,2.757-0.958,4.844,1.604,7.208L270.227,1630.119z M231.586,1631.035 L232.02,1630.561 L232.262,1629.304 L232.02,1628.913 L231.639,1628.744 L231.231,1629.024 L230.687,1630.197 L231.015,1630.981 L231.586,1631.035 Z   M296.675,1645.164c-3.985-3.032-3.184,1.731-6.218-4.951l0.078-0.446l0.438,0.055c0.781,1.144,4.238,2.248,6.217,4.586l0.025,0.449  L296.675,1645.164z   M280.87,1652.334l0.354-0.027l0.407-0.893c-0.14-0.734-0.32-1.626-0.68-2.294l-0.216-0.139l-0.354,0.196L280.87,1652.334z   M306.333,1658.552l-0.052,0.896c0.807,1.403,2.308,2.085,3.393,3.244l1.029-0.335l0.328-1.034l-0.271-1.092  c-0.434-0.076-0.971-0.494-1.195-0.865c-0.711-0.021-1.922-0.461-2.361-1.064l-0.352-0.026L306.333,1658.552z   M308.912,1665.402l0.516-0.027l0.107-0.335l-0.325-0.614l0.325-0.53c-0.385-0.823-1.231-2.027-2.28-1.987l-0.108,0.614  c0.059,0.42,0.414,0.966,0.762,1.203l-0.111,1.062L308.912,1665.402z M294.168,1676.04 L294.357,1675.593 L293.951,1675.118 L293.328,1675.118 L293.029,1675.509 L293.384,1676.04 L294.168,1676.04 Z   M286.704,1676.428l1.167-0.308l0.381-0.727l-0.271-0.335c-0.478-0.244-1.583,0.088-2.008,0.305l-0.082,0.561l0.189,0.308  L286.704,1676.428z   M305.461,1677.333c1.268-1.017,0.734-2.694,0.38-4.024l-0.652,0.361c-0.568,0.576-0.837,3.014-0.136,3.494L305.461,1677.333z   M315.176,1681.811l0.354-0.111l0.135-0.392c-0.186-0.401-0.697-1.005-1.139-1.146l-0.246,0.445  C314.365,1681.027,314.788,1681.62,315.176,1681.811z   M319.706,1689.921c0.47-0.011,1.09-0.384,1.437-0.669l-0.025-0.338c-0.642-0.029-0.979,0.169-1.602,0.419l-0.137,0.419  L319.706,1689.921z   M326.192,1690.347l0.269-0.226l-0.459-0.865c0.045-0.295,0.143-1.335-0.109-1.565l-1.301-0.338l-0.438,0.28  c-0.31,0.443-0.542,2.146-0.433,2.684l0.325,0.308C324.832,1690.709,325.412,1690.247,326.192,1690.347z M326.323,1694.23 L326.76,1693.811 L326.786,1692.358 L326.379,1692.331 L325.864,1692.946 L325.946,1693.727 L326.323,1694.23 Z   M323.745,1697.498c0.54-0.486,1.269-1.297,1.981-1.477l-0.217-0.477l-1.385,0.081l-0.762,1.564L323.745,1697.498z M265.51,1708.646 L265.67,1708.172 L265.402,1707.558 L265.047,1707.443 L264.692,1707.892 L264.912,1708.507 L265.51,1708.646 Z   M276.934,1708.707l0.594-0.026c0.354-0.461,0.717-1.025,0.869-1.596l-0.242-0.392l-0.463-0.027l-1.03,1.649L276.934,1708.707z   M244.289,1710.126c1.11,0.238,2.527,0.246,3.639,0c3.031,1.431,3.044,0.392,6.457-1.062c0.085-0.036,0.355-0.369,0.433-0.449  l0.108-0.446c-0.066-0.6-0.482-1.552-0.979-1.93c-2.149,0.117-4.305,0.32-6.456,0.112c-0.794,0.607-1.517,3.111-2.198,3.271  l-1.112-0.561l-0.242,0.253C243.92,1709.588,244.062,1709.959,244.289,1710.126z   M245.647,1713.059l0.272-0.361c-0.164-0.403-2.211-1.643-2.717-2.125h-0.541c-0.241,0.271-0.494,0.826-0.434,1.202  C242.385,1712.366,245.109,1712.975,245.647,1713.059z   M262.36,1709.484c-0.274-0.466-4.509-2.567-5.103-2.487l-0.377,0.389c-0.266,1.875,1.205,5.008,1.25,7.215  C262.49,1715.528,262.814,1713.08,262.36,1709.484z   M297.232,1697.592l-0.463-0.783c0.214-1.382,2.59-1.553,3.041-2.626c0.972-2.315,0.53-3.522,0.138-5.897  c-0.038-0.232,0.084-0.934,0.108-1.203l0.325-0.223l0.433,0.058c0.133,0.162,0.498,0.517,0.571,0.696  c2.713,6.576,3.44,2.792,3.308,11.212c-0.01,0.601-0.328,1.324-0.272,1.899c0.16,1.643,1.87,2.432,1.899,3.859  c0.017,0.816-0.337,1.799-0.407,2.629c-0.161,1.905,1.575,1.521,0.105,4.586c-0.577,0.141-1.511-0.393-2.062-0.619  c-0.79,0.652-1.26,4.063-2.633,3.94c-2.023-0.973-0.398-6.399-4.558-7.411c-0.755-1.217-1.384-2.316-1.87-3.689  c0.029-0.405,0.2-1.735,0.545-2.014C297.154,1701.699,297.342,1698.93,297.232,1697.592z   M260.624,1717.788c0.173-0.159,0.568-0.552,0.571-0.812l-0.16-0.308c-0.979-0.351-1.93,0.15-2.77,0.643l-0.217,0.418l0.352,0.365  C258.697,1718.258,259.978,1717.698,260.624,1717.788z M350.24,1720.534 L350.621,1720.477 L351.162,1719.669 L350.891,1719.166 L350.404,1719.416 L350.103,1720.169 L350.24,1720.534 Z   M304.867,1661.04l-0.49,0.503c-0.221,1.722,0.246,3.356-0.164,5.086l-0.298,0.308c-0.034,0.276,2.036,3.715,2.172,3.774  c0.545,0.189,2.556-0.799,2.821-1.342c0.181-0.29-0.271-1.325-0.406-1.591l0.762-1.173l-0.217-0.365  c-0.437-0.177-1.496-0.699-1.736-1.146c0.245-1.109-0.498-1.444-0.734-2.237c-0.119-0.402,0.105-1.492-0.295-1.761L304.867,1661.04z     M141.582,1562.825l0.623-1.953c-0.053-0.139-0.211-0.273-0.354-0.309c-0.42,0.166-1.439,0.378-1.877,0.143l0.164-0.754l-0.463-0.642  c0.63-0.308,1.338-1.215,1.546-1.872l-0.298-0.838l0.242-0.504l-0.246-0.611l-0.627-0.393l-0.053-0.308l0.434-0.696l-0.332-2.764  l-1.115-1.062l-0.57-0.111c-0.343-0.257-0.448-1.299-0.436-1.673l-0.355-0.445c-0.328-0.053-0.779-0.253-0.951-0.559l-0.082-0.445  l0.217-0.393c0.99,0.003,1.912,0.451,3.07,0.443c0.549-0.264,0.811-2.109,0.541-2.653c-0.522-0.786-2.328-1.887-3.316-1.588  l-0.354-0.277l-0.574-1.534c0.229-1.344,1.37-1.642,2.554-1.483l0.327-0.28l0.161-0.531l-0.246-0.834l-0.463-0.393  c-0.097-0.295-0.125-0.754,0.053-1.03l-0.844-1.062l0.189-0.503l0.408-0.169c0.26,0.227,0.933,0.604,1.305,0.504l0.463-0.393  c0.12-0.753,0.288-1.354,0.627-2.014l-0.256-0.453c0.13-0.791-0.176-2.883-0.773-3.498l-1.061-0.114l-0.403-0.592l0.437-0.415  c0.123-0.366,0.102-0.885-0.076-1.23l0.275-0.893c-0.068-0.403-0.576-0.881-0.892-1.094c-0.046-0.309,0.016-0.771,0.249-1.004  c0.355-0.111,1.066-0.5,1.201-0.889l1.414-0.132c1.612-1.187-0.602-12.462-1.379-13.619l0.191-0.25l1.659,0.064l0.272,0.446  l-0.085,0.646l0.489-0.139l0.354,0.227l0.105,0.392c-0.312,0.295-0.443,0.993-0.439,1.396l0.272-0.058  c0.09-0.375,0.448-1.175,0.85-1.334l0.544,0.084l0.893,1.041c0.505,0.037,1.154,0.479,1.523,0.791l0.284,2.46l0.758,0.702  l0.079,0.673l-0.328,0.389l0.017,2.376l1.3,1.067l0.141-0.78l1.338-0.773l0.299,0.142l0.243,0.392l-0.036,1.927  c0.65,0.284,2.604,2.117,2.979,2.784l0.243-0.055l0.003-0.642c0.06-0.147,0.291-0.229,0.438-0.192l0.025,0.389  c0.533-0.029,0.923-0.428,1.145-0.747l0.817-0.189l0.171-1.426c0.527-0.284,1.781,0.2,2.23,0.46l0.053,0.253  c-0.469,1.45-0.754,1.83,0.092,3.214l-0.328,0.419l-0.41-0.088l-0.57,0.611c-0.244,0.624-0.159,1.798-0.043,2.431l-0.516-0.115  l-0.594-0.619l-0.223,0.812c-0.659,0.286-1.193,2.632-0.998,3.265l-0.271,0.445l0.242,0.25c0.168,0.483,0.209,1.095,0.105,1.596  l1.443,1.53l-0.271,0.28c-0.788-0.071-1.172-0.967-2.15-0.892c-0.387,0.278-1.316,1.024-1.465,1.511l0.219,0.642l-0.57,1.284  c0.148,1.667,1.346,2.884,2.342,4.103c0.604,0.737-0.256,2.306,1.854,3.376l0.463-0.169c0.096-0.405,0.479-1.28,0.893-1.48  l0.437,0.055c0.284,0.448,0.015,1.963-0.105,2.43l0.628,1.257l-0.3,0.53l-1.604,0.392c0.197,0.382,0.596,0.798,1.008,0.947  l-0.243,0.364c-0.296-0.208-1.469-0.949-1.847-0.838l-0.358,0.196l-0.19-0.474l0.108-0.361l-0.242-0.28l-1.06,0.195  c-0.26-0.182-0.837-0.465-1.172-0.361l0.627,0.781c-0.867,1.053-1.443,2.722-0.729,4.021c0.309,0.431,1.186,0.396,1.66,0.445  l-0.055,0.781l-0.572,0.445c-0.814,1.616,1.328,2.734,1.176,3.518l-0.382,0.112l-1.983-1.812c-0.312,0.187-0.543,0.794-0.628,1.119  l-1.607-4.356c-3.767,0.76-3.293,2.143-4.64,5.616c-0.082,0.213-0.109,0.477-0.16,0.699l0.381,0.893l-0.217,0.504l-1.873,1.257  l-0.273,0.699C142.77,1563.102,142.337,1563.308,141.582,1562.825z   M405.682,1633.275c0.305,0.056,0.687,0.285,0.831,0.571c0.143,1.284-0.799,1.894-1.94,2.034l-0.555-0.25  c-0.244-1.104,0.84-1.947,1.768-2.248c0.266,0.179,0.544,0.411,0.728,0.678L405.682,1633.275z   M389.742,1615.539c0.348-0.202,0.855-0.281,1.248-0.214c-0.246,0.583-0.426,1.424-0.069,1.998c0.367-0.018,0.835,0.186,1.074,0.464  c-0.255,0.983,0.296,2.215-0.069,2.927c-0.246,0.289-0.641,0.538-1.005,0.643l-0.312,0.499l-0.52-0.035  c-1.113-1.501-1.002-3.455-1.352-5.211l0.242-0.571c0.305-0.236,0.65-0.453,1.005-0.606L389.742,1615.539z   M388.703,1607.259c-0.311,2.468,1.186,4.69-0.484,7.065l-0.52-0.214c-0.812-1.093-0.854-1.267-1.976-2.105  c-0.192-0.4-0.333-0.849-0.416-1.284c0.724-0.629,0.465-1.734,0.485-2.57l0.347-0.499h0.658c0.282-0.505,0.644-1.002,1.074-1.392  l0.485,0.32c0.002,0.301-0.015,0.774,0.173,1.035L388.703,1607.259z   M387.456,1592.877l0.589-0.25l0.658,0.214l0.139,0.678l-0.277,0.571c-0.385,0.016-0.866,0.188-1.143,0.464  c-0.16,0.387-0.376,0.77-0.624,1.106c-1.122,0.269-1.896,1.232-1.767,2.391c0.249,0.281,1.146,3.336,1.073,3.712  c-0.281,0.281-0.479,0.749-0.52,1.142c1.146,1.687-1.292,3.164-1.594,4.676c-0.184,0.922,0.459,3.053-0.069,3.711l-0.52,0.285  c-0.66,0.033-1.301-0.265-1.802-0.678c0.167-0.82-0.341-1.445-0.243-2.213c0.268-2.095,0.533-0.971,0.486-3.925l0.276-0.394  l0.554-0.07c0.311-0.215,0.586-0.582,0.729-0.928l-0.035-0.75c-0.393-0.067-0.9,0.013-1.247,0.214l-0.415-0.428  c-0.284-1.037,0.341-3.874,0.139-5.389c0.465-1.617,1.684-0.772,2.598-1.356c1.177-0.752,1.841-3.127,3.673-2.927l0.104-0.106  L387.456,1592.877z   M376.403,1605.154c0.347,0.07,0.717,0.292,0.97,0.535l0.174,0.499l-0.208,0.679c-0.358,0.014-0.805-0.197-1.04-0.464l-0.068-0.75  l-0.381-0.464l0.311-0.285c0.283,0.089,0.646,0.253,0.832,0.499L376.403,1605.154z   M378.621,1597.801c0.455,0.998-0.299,2.312-1.316,2.57l-0.209-0.607c0.435-0.668,1.004-1.186,1.421-1.891l0.416,0.428l-0.173,0.428  L378.621,1597.801z"/></svg>